<svg width="24" height="18" viewBox="0 0 24 18" fill="none" xmlns="http://www.w3.org/2000/svg">
<path d="M23.2249 5.31073L23.2564 5.27919C23.2564 5.24766 23.288 5.24766 23.288 5.21613C23.288 5.21613 23.288 5.1846 23.3195 5.1846C23.3195 5.15307 23.351 5.12154 23.351 5.12154V5.09C23.351 5.02694 23.351 4.93235 23.351 4.83775V4.80622C23.351 4.77469 23.351 4.74316 23.3195 4.74316C23.3195 4.71163 23.3195 4.71163 23.288 4.71163C23.288 4.68009 23.2564 4.6801 23.2564 4.64856L23.2249 4.61703C23.2249 4.61703 23.2249 4.5855 23.1934 4.5855L19.5042 0.234149C19.378 0.108023 19.2204 0.0134282 19.0312 0.0134282H15.4681H8.5312H4.96813C4.77895 0.0134282 4.62129 0.108023 4.49516 0.234149L0.805973 4.49091C0.805973 4.49091 0.805973 4.52244 0.774442 4.52244L0.74291 4.55397C0.74291 4.5855 0.711379 4.5855 0.711379 4.61703C0.711379 4.61703 0.711378 4.64856 0.679847 4.64856C0.679847 4.6801 0.648315 4.71163 0.648315 4.71163V4.74316C0.648315 4.80622 0.648315 4.90082 0.648315 4.99541V5.02694C0.648315 5.05847 0.648315 5.09 0.679847 5.09C0.679847 5.12154 0.679847 5.12154 0.711379 5.12154C0.711379 5.15307 0.74291 5.15307 0.74291 5.1846L0.774442 5.21613C0.774442 5.21613 0.774442 5.24766 0.805973 5.24766L11.5267 17.6711C11.5582 17.7026 11.5582 17.7026 11.5898 17.7341L11.6213 17.7657C11.6213 17.7657 11.6213 17.7657 11.6528 17.7657C11.6528 17.7657 11.6844 17.7972 11.7159 17.7972C11.7159 17.7972 11.7474 17.7972 11.7474 17.8287C11.7789 17.8287 11.7789 17.8287 11.8105 17.8603H11.842H11.8735C11.9051 17.8603 11.9681 17.8603 11.9997 17.8603C12.0312 17.8603 12.0943 17.8603 12.1258 17.8603H12.1573H12.1889C12.2204 17.8603 12.2204 17.8603 12.2519 17.8287C12.2519 17.8287 12.2835 17.8287 12.2835 17.7972C12.315 17.7972 12.315 17.7657 12.3465 17.7657C12.3465 17.7657 12.3465 17.7657 12.378 17.7657L12.4096 17.7341C12.4411 17.7026 12.4411 17.7026 12.4726 17.6711L23.1934 5.24766C23.1934 5.31073 23.2249 5.31073 23.2249 5.31073ZM6.29246 5.53145L9.82399 13.8558L2.66633 5.53145H6.29246ZM12.6303 5.53145H16.351L12.6303 14.2657V5.53145ZM11.369 14.2657L7.64832 5.53145H11.369V14.2657ZM17.7069 5.53145H21.333L14.1753 13.8873L17.7069 5.53145ZM21.333 4.27018H17.7069L16.4141 1.27469H18.7474L21.333 4.27018ZM16.351 4.27018H12.6303V1.27469H15.0582L16.351 4.27018ZM11.369 1.27469V4.27018H7.64832L8.94111 1.27469H11.369ZM5.25192 1.27469H7.58525L6.29246 4.27018H2.66633L5.25192 1.27469Z" fill="#D09200"/>
</svg>
