<svg width="24" height="16" viewBox="0 0 24 16" fill="none" xmlns="http://www.w3.org/2000/svg">
<path d="M22.7208 14.4955H21.5541L16.982 8.72523V5.66667L21.6802 3.9955C21.9325 3.90091 22.0901 3.68019 22.0901 3.3964C22.0901 3.11262 21.9325 2.8919 21.6802 2.7973L16.982 1.12613V0.810817C16.982 0.463971 16.6983 0.180187 16.3514 0.180187C16.0046 0.180187 15.7208 0.463971 15.7208 0.810817V8.6937L13.5136 11.4685L8.9415 5.6982C8.68925 5.38289 8.18474 5.38289 7.96402 5.6982L0.774834 14.7478C0.554113 15.0315 0.617176 15.4099 0.869428 15.6306C0.995554 15.7252 1.12168 15.7568 1.24781 15.7568C1.437 15.7568 1.62618 15.6622 1.75231 15.5045L8.40547 7.08559L12.6938 12.509L11.1172 14.4955H4.40096C4.05411 14.4955 3.77033 14.7793 3.77033 15.1261C3.77033 15.473 4.05411 15.7568 4.40096 15.7568H22.7208C23.0676 15.7568 23.3514 15.473 23.3514 15.1261C23.3514 14.7793 23.0676 14.4955 22.7208 14.4955ZM19.5676 3.42793L16.982 4.34235V2.51352L19.5676 3.42793ZM16.3514 9.98649L19.946 14.527H12.7568L16.3514 9.98649Z" fill="#D09200"/>
</svg>
