<svg width="22" height="22" viewBox="0 0 22 22" fill="none" xmlns="http://www.w3.org/2000/svg">
<path d="M21.5316 20.6486L19.2298 18.3468C19.7974 17.6216 20.1442 16.6757 20.1442 15.6666C20.1442 13.8694 19.0722 12.2928 17.5271 11.5991C17.7794 10.7793 17.9055 9.92791 17.9055 9.07656C17.9055 4.2207 13.9325 0.27926 9.07666 0.27926C4.2208 0.27926 0.279358 4.2207 0.279358 9.07656C0.279358 13.9324 4.2208 17.8739 9.07666 17.8739C9.92801 17.8739 10.7794 17.7477 11.5992 17.4955C12.2929 19.0405 13.8694 20.1126 15.6667 20.1126C16.6758 20.1126 17.5902 19.7657 18.3469 19.1982L20.6487 21.5C20.7749 21.6576 20.9325 21.7207 21.0902 21.7207C21.2478 21.7207 21.4055 21.6576 21.5316 21.5315C21.7839 21.2793 21.7839 20.9009 21.5316 20.6486ZM9.07666 16.6441C4.91449 16.6441 1.54062 13.2387 1.54062 9.07656C1.54062 4.91439 4.91449 1.54052 9.07666 1.54052C13.2388 1.54052 16.6127 4.91439 16.6127 9.07656C16.6127 9.83331 16.4866 10.5585 16.2974 11.2522C16.0767 11.2207 15.8875 11.1892 15.6667 11.1892C13.2073 11.1892 11.1893 13.2072 11.1893 15.6666C11.1893 15.8874 11.2208 16.1081 11.2523 16.2973C10.5586 16.518 9.83341 16.6441 9.07666 16.6441ZM12.4821 15.6666C12.4821 13.9009 13.9325 12.4504 15.6983 12.4504C17.464 12.4504 18.9145 13.9009 18.9145 15.6666C18.883 17.4639 17.464 18.8829 15.6667 18.8829C13.901 18.8829 12.4821 17.4639 12.4821 15.6666Z" fill="#D09200"/>
<path d="M11.3469 10.59C11.3469 9.42336 10.4009 8.47741 9.23427 8.47741H8.95048C8.47751 8.47741 8.09913 8.09904 8.09913 7.62606C8.09913 7.15309 8.47751 6.77471 8.95048 6.77471H11.473C11.8199 6.77471 12.1036 6.49093 12.1036 6.14408C12.1036 5.79723 11.8199 5.51345 11.473 5.51345H9.73877V4.56751C9.73877 4.22066 9.45499 3.93687 9.10814 3.93687C8.7613 3.93687 8.47751 4.22066 8.47751 4.56751V5.57651C7.53157 5.79723 6.83787 6.64859 6.83787 7.62606C6.83787 8.79273 7.78382 9.73868 8.95048 9.73868H9.23427C9.70724 9.73868 10.0856 10.1171 10.0856 10.59C10.0856 11.063 9.70724 11.4414 9.23427 11.4414H6.71175C6.3649 11.4414 6.08112 11.7252 6.08112 12.072C6.08112 12.4189 6.3649 12.7026 6.71175 12.7026H8.44598V13.6486C8.44598 13.9954 8.72976 14.2792 9.07661 14.2792C9.42346 14.2792 9.70724 13.9954 9.70724 13.6486V12.6396C10.6532 12.4189 11.3469 11.599 11.3469 10.59Z" fill="#D09200"/>
</svg>
