<svg width="50" height="78" viewBox="0 0 50 78" fill="none" xmlns="http://www.w3.org/2000/svg">
<path d="M25 33.725C22.632 33.725 20.361 32.79 18.6865 31.1256C17.0121 29.4612 16.0714 27.2038 16.0714 24.85C16.0714 22.4962 17.0121 20.2388 18.6865 18.5744C20.361 16.91 22.632 15.975 25 15.975C27.368 15.975 29.639 16.91 31.3135 18.5744C32.9879 20.2388 33.9286 22.4962 33.9286 24.85C33.9286 26.0155 33.6976 27.1696 33.2489 28.2463C32.8002 29.3231 32.1425 30.3015 31.3135 31.1256C30.4844 31.9497 29.5001 32.6034 28.4168 33.0494C27.3336 33.4954 26.1725 33.725 25 33.725ZM25 0C18.3696 0 12.0107 2.61812 7.32233 7.2784C2.63392 11.9387 0 18.2594 0 24.85C0 43.4875 25 78 25 78C25 78 50 43.4875 50 24.85C50 18.2594 47.3661 11.9387 42.6777 7.2784C37.9893 2.61812 31.6304 0 25 0Z" fill="#ED1D24"/>
</svg>
