<svg width="24" height="24" viewBox="0 0 24 24" fill="none" xmlns="http://www.w3.org/2000/svg">
<g clip-path="url(#clip0)">
<path d="M19.5585 4.38983H4.44569C3.09663 4.38983 2 5.48646 2 6.83552V17.1645C2 18.5136 3.09663 19.6102 4.44569 19.6102H19.5543C20.9034 19.6102 22 18.5136 22 17.1645V6.83966C22.0041 5.4906 20.9075 4.38983 19.5585 4.38983ZM20.8868 17.1645C20.8868 17.897 20.2909 18.4929 19.5585 18.4929H4.44569C3.71322 18.4929 3.11732 17.897 3.11732 17.1645V6.83966C3.11732 6.10719 3.71322 5.51129 4.44569 5.51129H19.5543C20.2868 5.51129 20.8827 6.10719 20.8827 6.83966V17.1645H20.8868Z" fill="#D09200"/>
<path d="M14.6123 11.8717L19.5037 7.48521C19.7313 7.2783 19.752 6.92655 19.5451 6.69481C19.3382 6.46721 18.9864 6.44652 18.7547 6.65343L12.0094 12.7076L10.6935 11.5324C10.6893 11.5283 10.6852 11.5241 10.6852 11.52C10.6562 11.491 10.6272 11.4662 10.5941 11.4413L5.23928 6.64929C5.00754 6.44238 4.65579 6.46307 4.44888 6.69481C4.24197 6.92655 4.26266 7.2783 4.4944 7.48521L9.44371 11.909L4.51509 16.5231C4.29163 16.7341 4.27922 17.0859 4.49027 17.3135C4.602 17.4293 4.75097 17.4914 4.89995 17.4914C5.03651 17.4914 5.17307 17.4418 5.28066 17.3424L10.2838 12.6621L11.6411 13.8746C11.7487 13.9698 11.8811 14.0153 12.0135 14.0153C12.146 14.0153 12.2825 13.9657 12.386 13.8705L13.7806 12.6207L18.7547 17.3466C18.8623 17.45 19.003 17.4997 19.1396 17.4997C19.2885 17.4997 19.4334 17.4418 19.5451 17.3259C19.7561 17.1024 19.7479 16.7465 19.5244 16.5355L14.6123 11.8717Z" fill="#D09200"/>
</g>
<defs>
<clipPath id="clip0">
<rect width="20" height="20" fill="white" transform="translate(2 2)"/>
</clipPath>
</defs>
</svg>
