<svg width="24" height="24" viewBox="0 0 24 24" fill="none" xmlns="http://www.w3.org/2000/svg">
<path d="M12.8749 12.8749C12.8749 12.8749 12.8749 12.8749 12.8749 12.8749C12.0884 13.6614 11.2643 14.4049 10.563 14.8609C10.2091 15.0911 9.92233 15.2239 9.71109 15.2697C9.51019 15.3133 9.45902 15.2657 9.44046 15.2471L9.44038 15.247L13.2285 13.2284L12.8749 12.8749ZM12.8749 12.8749C13.6614 12.0883 14.4048 11.2642 14.8608 10.5629C15.091 10.209 15.2238 9.92224 15.2697 9.71097C15.3131 9.51047 15.2658 9.45898 15.2472 9.44028C15.2471 9.44024 15.2471 9.4402 15.247 9.44015M12.8749 12.8749L15.4981 5.12215C13.765 7.27746 14.4679 7.96989 15.4235 8.91128C15.4818 8.96869 15.541 9.02704 15.6007 9.08669L15.247 9.44015M15.247 9.44015C15.1942 9.38735 15.1396 9.33355 15.0841 9.27895C14.8858 9.08372 14.6771 8.87824 14.5045 8.67159C14.2759 8.39801 14.0689 8.07682 13.9821 7.67951C13.8046 6.8671 14.1721 5.97332 15.1083 4.80895L15.247 9.44015ZM16.5974 3.61972C16.0911 3.80364 15.6001 4.197 15.1084 4.80883L19.5673 5.59614L19.9208 5.24259C19.9208 5.24257 19.9208 5.24255 19.9208 5.24253C19.8403 5.16209 19.745 5.06212 19.6424 4.95448C19.4735 4.77729 19.2848 4.57931 19.1099 4.41343C18.8102 4.12913 18.4532 3.83783 18.0392 3.66343C17.6087 3.4821 17.1208 3.42959 16.5974 3.61972Z" stroke="#D09200"/>
</svg>
