<svg width="24" height="24" viewBox="0 0 24 24" fill="none" xmlns="http://www.w3.org/2000/svg">
<g clip-path="url(#clip0)">
<path d="M7.14105 20C7.80675 20 8.61076 19.8332 9.49495 19.4995C11.4334 18.7687 13.5424 17.3243 15.4335 15.4332C17.3252 13.5416 18.7696 11.432 19.5009 9.49353C20.1656 7.73106 20.1672 6.28449 19.5047 5.62256C19.4095 5.5273 19.3126 5.42505 19.2125 5.31957C18.6081 4.68401 17.9252 3.9688 17.02 4.00109C16.3963 4.02692 15.7919 4.41439 15.1731 5.1845C13.3444 7.45876 14.1689 8.26922 15.123 9.20885L15.2915 9.37568C15.4475 9.53174 15.7424 10.2545 12.9989 12.998C12.1034 13.8935 11.3398 14.549 10.7295 14.9456C10.3452 15.1953 9.65801 15.5731 9.37602 15.2911L9.2065 15.12C8.26795 14.168 7.45748 13.3462 5.18484 15.1733C4.41473 15.7921 4.0278 16.396 4.00197 17.0208C3.96483 17.9254 4.68543 18.6099 5.32153 19.2138C5.42647 19.3139 5.52872 19.4107 5.62398 19.5054C5.95279 19.8348 6.47857 20 7.14105 20ZM17.0846 4.53817C17.7277 4.53817 18.3084 5.14952 18.8223 5.69037C18.9256 5.79907 19.0257 5.90455 19.1242 6.00304C19.6177 6.49599 19.5677 7.79134 18.9972 9.3041C18.2922 11.1726 16.8914 13.2144 15.0525 15.0533C13.2142 16.8911 11.1735 18.2919 9.30444 18.9963C7.79168 19.5679 6.49633 19.6163 6.00392 19.1239C5.90543 19.0254 5.79995 18.9253 5.69125 18.8225C5.13856 18.2973 4.5116 17.7021 4.53905 17.0417C4.55788 16.5881 4.88831 16.1 5.52119 15.5914C7.41497 14.0684 7.94452 14.606 8.82279 15.4967L8.995 15.6705C9.41477 16.0908 10.0966 15.9977 11.0222 15.3961C11.6643 14.9784 12.4575 14.2993 13.3788 13.3774C15.6558 11.101 16.3839 9.70772 15.6714 8.99358L15.4997 8.82406C14.6069 7.94579 14.0682 7.4157 15.5918 5.52085C16.1014 4.88851 16.589 4.55808 17.0426 4.53871C17.0566 4.53817 17.0706 4.53817 17.0846 4.53817Z" fill="#D09200" stroke="#D09200" stroke-width="0.25"/>
</g>
<defs>
<clipPath id="clip0">
<rect width="16" height="16" fill="white" transform="matrix(-1 0 0 1 20 4)"/>
</clipPath>
</defs>
</svg>
