<svg width="24" height="24" viewBox="0 0 24 24" fill="none" xmlns="http://www.w3.org/2000/svg">
<path d="M5.78906 9.31069C5.78906 5.88146 8.56913 3.10156 11.9982 3.10156C15.4274 3.10156 18.2071 5.88144 18.2071 9.31069C18.2071 10.3012 17.8845 11.5292 17.3527 12.8416C16.8243 14.1456 16.1049 15.4955 15.3471 16.7177C14.5891 17.9403 13.8003 19.023 13.1388 19.7942C12.8069 20.1811 12.516 20.479 12.2842 20.6756C12.1678 20.7743 12.077 20.8382 12.012 20.875C12.007 20.8778 12.0025 20.8803 11.9982 20.8825C11.9939 20.8803 11.9894 20.8778 11.9845 20.875C11.9194 20.8382 11.8286 20.7743 11.7122 20.6756C11.4804 20.479 11.1895 20.1811 10.8576 19.7942C10.1961 19.023 9.40724 17.9403 8.64923 16.7177C7.89142 15.4955 7.17197 14.1456 6.64351 12.8415C6.11171 11.5292 5.78906 10.3012 5.78906 9.31069ZM7.70019 9.29156C7.70019 11.6651 9.62467 13.5896 11.9982 13.5896C14.3721 13.5896 16.2962 11.6648 16.2962 9.29156C16.2962 6.91808 14.3721 4.99356 11.9982 4.99356C9.62469 4.99356 7.70019 6.91784 7.70019 9.29156Z" stroke="#D09200"/>
</svg>
