<svg width="18" height="18" viewBox="0 0 18 18" fill="none" xmlns="http://www.w3.org/2000/svg">
<path d="M3.65026 5.90503C3.65454 5.72121 3.50864 5.56882 3.32482 5.56472C3.14529 5.56027 2.9886 5.70616 2.98433 5.89016C2.96666 6.67672 3.09008 7.53262 3.35139 8.43367C3.39358 8.57938 3.52667 8.67418 3.67107 8.67418C3.70172 8.67418 3.73295 8.6699 3.764 8.66077C3.94056 8.60967 4.04223 8.42494 3.99111 8.24816C3.74877 7.41235 3.63408 6.62393 3.65026 5.90503Z" fill="#937F50" stroke="#937F50" stroke-width="0.25"/>
<path d="M4.89322 2.32173C4.74118 2.42676 4.58413 2.55944 4.41274 2.72747C4.28152 2.85628 4.27948 3.06722 4.40829 3.19844C4.47352 3.26499 4.55976 3.29825 4.64598 3.29825C4.7302 3.29825 4.81458 3.26668 4.87927 3.20291C5.02313 3.06184 5.15136 2.95294 5.2716 2.87003C5.42292 2.76559 5.46101 2.55818 5.35654 2.40669C5.25192 2.25538 5.04451 2.21729 4.89322 2.32173Z" fill="#937F50" stroke="#937F50" stroke-width="0.25"/>
<path d="M8.047 5.56532C7.86299 5.56924 7.71728 5.72163 7.72117 5.90543C7.72637 6.13943 7.718 6.38013 7.69662 6.62081C7.68047 6.80389 7.81576 6.96578 7.99903 6.98194C8.00906 6.98286 8.01892 6.98326 8.02875 6.98326C8.19937 6.98326 8.34472 6.85297 8.36016 6.67976C8.38376 6.41474 8.39288 6.14931 8.38712 5.89096C8.38304 5.70694 8.22673 5.56069 8.047 5.56532Z" fill="#937F50" stroke="#937F50" stroke-width="0.25"/>
<path d="M15.9402 3.25842C15.5513 2.49862 14.7781 2.01948 13.9106 2.01948C12.7479 2.01948 11.7851 2.89305 11.6444 4.01825C11.2556 4.02716 10.9092 4.20988 10.6793 4.49124C9.92989 2.49138 7.99953 1.0638 5.74134 1.0638C2.83465 1.0638 0.469971 3.42866 0.469971 6.33555C0.469971 8.12594 1.21546 9.09204 2.07879 10.2109C2.30962 10.5102 2.54825 10.8196 2.78932 11.1646C3.21643 11.7762 4.49756 14.2065 4.51039 14.2311L4.53046 14.2692C4.49367 14.3227 4.47211 14.3874 4.47211 14.4573V15.5141C4.47173 15.5241 4.46912 15.5334 4.46912 15.5434V16.1652C4.46912 16.5902 4.81481 16.9359 5.2397 16.9359H6.19408C6.61897 16.9359 6.96466 16.5902 6.96466 16.1652V15.5434C6.96466 15.5261 6.96075 15.51 6.95965 15.4929V14.4573C6.95965 14.4067 6.94756 14.3593 6.92731 14.3164L6.97229 14.2311C6.9853 14.2065 8.26624 11.7764 8.69354 11.1648C8.93461 10.8196 9.17342 10.5102 9.40427 10.2109C10.2566 9.10599 10.9928 8.14842 11.0112 6.40077C11.2051 6.51825 11.4315 6.58719 11.6744 6.58719C12.0338 6.58719 12.371 6.43533 12.6098 6.18052C12.9895 6.44483 13.4397 6.58719 13.9106 6.58719C14.2818 6.58719 14.6435 6.49779 14.9692 6.327C15.2346 6.49595 15.5439 6.58719 15.8613 6.58719C16.7795 6.58719 17.5266 5.84023 17.5266 4.92187C17.5266 4.03013 16.8219 3.29969 15.9402 3.25842ZM6.85669 13.0334C6.69759 13.3282 6.56191 13.5828 6.47698 13.7428H5.0057C4.9202 13.5817 4.78304 13.3242 4.62246 13.0269L6.85669 13.0334ZM6.29353 14.7829C6.26064 14.7786 6.2281 14.7728 6.19411 14.7728H5.23972C5.20498 14.7728 5.17171 14.7786 5.13823 14.7831V14.4573C5.13823 14.4407 5.13564 14.4248 5.13323 14.409H6.29839C6.29596 14.4248 6.29356 14.4407 6.29356 14.4573V14.7829H6.29353ZM6.19408 16.2698H5.2397C5.18208 16.2698 5.13526 16.2229 5.13526 16.1652V16.1059C5.136 16.096 5.1382 16.0863 5.1382 16.0763V15.5288C5.14565 15.4784 5.18728 15.439 5.2397 15.439H6.19408C6.24277 15.439 6.28181 15.4732 6.29351 15.5182V16.0763C6.29351 16.0938 6.29592 16.1104 6.29853 16.1271V16.1652C6.29855 16.2229 6.25171 16.2698 6.19408 16.2698ZM8.8768 9.80408C8.6413 10.1094 8.39764 10.4252 8.14747 10.7832C7.94227 11.0769 7.56962 11.732 7.2193 12.3684L6.56934 12.3665C6.76282 11.7629 7.00201 11.1627 7.23694 10.5802C7.59322 9.69702 7.96162 8.78368 8.17906 7.82464C8.21976 7.64529 8.10733 7.46687 7.9278 7.42635C7.74843 7.38546 7.57 7.49808 7.52948 7.67745C7.32394 8.58426 6.96559 9.47229 6.61915 10.3311C6.35392 10.9887 6.08127 11.6682 5.87051 12.3644L5.50288 12.3633C5.2921 11.6651 5.02429 11.0021 4.76389 10.3609C4.64903 10.078 4.53435 9.7953 4.42432 9.50946C4.35833 9.3377 4.16521 9.25206 3.99385 9.31819C3.82231 9.38436 3.73663 9.57692 3.8026 9.74866C3.91411 10.0382 4.03028 10.3248 4.14681 10.6114C4.37653 11.1774 4.61035 11.7612 4.80289 12.3613L4.25888 12.3598C3.90984 11.726 3.5396 11.0755 3.33535 10.7832C3.08537 10.4252 2.8417 10.1094 2.60601 9.80406C1.75254 8.698 1.13604 7.89878 1.13604 6.33552C1.13604 3.79593 3.20188 1.72991 5.74129 1.72991C8.28071 1.72991 10.3467 3.79593 10.3467 6.33552C10.3468 7.89864 9.73025 8.69782 8.8768 9.80408ZM15.8613 5.92107C15.6219 5.92107 15.39 5.83429 15.2083 5.67648C15.1458 5.62241 15.0681 5.59489 14.9897 5.59489C14.9257 5.59489 14.8614 5.61327 14.8053 5.65067C14.5394 5.82759 14.2301 5.9211 13.9106 5.9211C13.4831 5.9211 13.0798 5.7555 12.7748 5.45458C12.6974 5.37801 12.5873 5.34438 12.4799 5.36427C12.3727 5.38434 12.282 5.45553 12.2374 5.55513C12.1372 5.77741 11.9162 5.9211 11.6744 5.9211C11.3334 5.9211 11.0559 5.6436 11.0559 5.30255C11.0559 4.96152 11.3334 4.68402 11.6744 4.68402C11.7311 4.68402 11.7908 4.6948 11.8625 4.71804C11.9664 4.75148 12.0805 4.73179 12.1673 4.66544C12.2541 4.59891 12.3028 4.49408 12.2974 4.38477L12.295 4.34499C12.2941 4.33125 12.293 4.3173 12.293 4.30335C12.293 3.4114 13.0185 2.68564 13.9107 2.68564C14.5816 2.68564 15.173 3.09062 15.4168 3.71736C15.4711 3.85656 15.6119 3.9417 15.7603 3.92793C15.7933 3.92458 15.8272 3.92274 15.8613 3.92274C16.4122 3.92274 16.8606 4.37103 16.8606 4.92192C16.8606 5.47296 16.4122 5.92107 15.8613 5.92107Z" fill="#937F50" stroke="#937F50" stroke-width="0.25"/>
</svg>
