<svg width="18" height="18" viewBox="0 0 18 18" fill="none" xmlns="http://www.w3.org/2000/svg">
<path d="M0.730043 5.98374H17.2706C17.4895 5.98374 17.6841 5.83779 17.7327 5.61887C17.7814 5.39995 17.7084 5.18103 17.5138 5.05941L9.24356 0.316168C9.09761 0.21887 8.90302 0.21887 8.75707 0.316168L0.486799 5.08374C0.292205 5.20536 0.194908 5.42428 0.267881 5.6432C0.316529 5.83779 0.511124 5.98374 0.730043 5.98374ZM9.00031 1.28914L15.4463 5.01076H2.55437L9.00031 1.28914Z" fill="#937F50"/>
<path d="M5.76346 7.07869H3.35536C3.08779 7.07869 2.86887 7.29761 2.86887 7.56518V14.5463H2.09049C1.82292 14.5463 1.604 14.7652 1.604 15.0327C1.604 15.3003 1.82292 15.5192 2.09049 15.5192H15.8824C16.15 15.5192 16.3689 15.3003 16.3689 15.0327C16.3689 14.7652 16.15 14.5463 15.8824 14.5463H15.104V7.56518C15.104 7.29761 14.8851 7.07869 14.6175 7.07869H12.2094C11.9418 7.07869 11.7229 7.29761 11.7229 7.56518V14.5463H6.24995V7.56518C6.24995 7.27328 6.03103 7.07869 5.76346 7.07869ZM3.84184 8.05166H5.27698V14.5463H3.84184V8.05166ZM12.7202 8.05166H14.1554V14.5463H12.7202V8.05166Z" fill="#937F50"/>
<path d="M17.2702 16.7838H0.729651C0.462083 16.7838 0.243164 17.0027 0.243164 17.2703C0.243164 17.5378 0.462083 17.7568 0.729651 17.7568H17.2702C17.5378 17.7568 17.7567 17.5378 17.7567 17.2703C17.7567 17.0027 17.5378 16.7838 17.2702 16.7838Z" fill="#937F50"/>
</svg>
