<svg width="18" height="18" viewBox="0 0 18 18" fill="none" xmlns="http://www.w3.org/2000/svg">
<g clip-path="url(#clip0)">
<path d="M15.2317 14.4182C14.9656 14.4182 14.7009 14.25 14.5584 13.9901L12.6782 10.5532C12.6782 10.5532 7.85054 10.5535 7.84492 10.5535C7.83929 10.5535 7.78445 10.549 7.78445 10.549L7.6967 10.5498C7.14573 10.5498 6.68561 10.119 6.64932 9.56884L6.34276 4.89447C6.30564 4.31622 6.74579 3.81503 7.32404 3.77734L7.59882 3.76018C7.62301 3.75878 7.64636 3.75793 7.6697 3.75793C8.22123 3.75793 8.68164 4.18797 8.71736 4.73668L8.81636 6.29031H11.9166C12.123 6.29031 12.2912 6.4914 12.2912 6.7389C12.2912 6.98584 12.123 7.18693 11.9166 7.18693H8.87429L8.98061 8.79006H12.6374C12.7319 8.79006 12.8228 8.80497 12.9153 8.8359L12.9353 8.84237L12.9558 8.84603C13.1828 8.8854 13.383 9.03531 13.5048 9.25694L15.7402 13.3443C15.9418 13.717 15.8423 14.1664 15.5183 14.345C15.4302 14.3934 15.334 14.4182 15.2317 14.4182Z" fill="#937F50"/>
<path d="M7.6702 4.03918C8.07408 4.03918 8.41101 4.35362 8.43717 4.75412L8.51929 6.04478L8.55276 6.57156H9.08067H11.9171C11.95 6.57156 12.0105 6.63512 12.0105 6.7389C12.0105 6.8424 11.95 6.90568 11.9171 6.90568H9.17517H8.57414L8.61408 7.50531L8.68326 8.54593L8.71814 9.07131H9.24464H12.6382C12.7023 9.07131 12.7636 9.08172 12.8272 9.10253L12.8671 9.11603L12.9088 9.12306C13.0488 9.14753 13.1799 9.24822 13.2586 9.39165L15.4932 13.4774C15.622 13.7156 15.5728 13.9943 15.3835 14.0987C15.3362 14.1248 15.2881 14.1369 15.2325 14.1369C15.0674 14.1369 14.8997 14.0261 14.8061 13.8551L13.0061 10.5645L12.846 10.272H12.5125H7.86286H7.85526L7.82939 10.2677H7.78523H7.74642H7.73629L7.72589 10.268L7.6972 10.2686C7.29361 10.2686 6.95695 9.95303 6.93023 9.55056L6.62423 4.87647C6.59695 4.45262 6.91926 4.08531 7.34114 4.05775L7.61845 4.04059C7.63589 4.03975 7.65304 4.03918 7.6702 4.03918ZM7.6702 3.47668C7.64095 3.47668 7.6117 3.47753 7.58217 3.4795L7.30654 3.49665C6.5722 3.54418 6.01561 4.17868 6.06286 4.91275L6.36942 9.5874C6.41611 10.2919 7.00223 10.8311 7.69776 10.8311C7.71408 10.8311 7.73039 10.8308 7.7467 10.8302H7.78551C7.81167 10.8345 7.83754 10.8345 7.86314 10.8345H12.5125L14.3125 14.1251C14.5113 14.4876 14.8739 14.6994 15.2325 14.6994C15.379 14.6994 15.5216 14.6648 15.6549 14.5914C16.117 14.3369 16.2638 13.7195 15.9879 13.2096L13.7522 9.12165C13.5835 8.81509 13.3025 8.62075 13.0052 8.569C12.8888 8.53018 12.7673 8.50881 12.6382 8.50881H9.24436L9.17517 7.46818H11.9171C12.2796 7.46818 12.573 7.14025 12.573 6.7389C12.573 6.337 12.2796 6.00906 11.9171 6.00906H9.08067L8.99854 4.7184C8.95242 4.01415 8.36658 3.47668 7.6702 3.47668Z" fill="#937F50"/>
<path d="M7.46265 2.83374C6.76487 2.83374 6.19702 2.2659 6.19702 1.56812C6.19702 0.870334 6.76487 0.30249 7.46265 0.30249C8.16071 0.30249 8.72855 0.870334 8.72855 1.56812C8.72855 2.2659 8.16071 2.83374 7.46265 2.83374Z" fill="#937F50"/>
<path d="M7.46265 0.583496C8.00574 0.583496 8.4473 1.02506 8.4473 1.56787C8.4473 2.11068 8.00574 2.55225 7.46265 2.55225C6.91983 2.55225 6.47827 2.11068 6.47827 1.56787C6.47827 1.02534 6.91983 0.583496 7.46265 0.583496ZM7.46265 0.0209961C6.60849 0.0209961 5.91577 0.713715 5.91577 1.56787C5.91577 2.42231 6.60821 3.11475 7.46265 3.11475C8.31709 3.11475 9.0098 2.42203 9.0098 1.56787C9.0098 0.713715 8.31709 0.0209961 7.46265 0.0209961Z" fill="#937F50"/>
<path d="M4.22372 7.17907C4.22372 7.17907 1.64719 9.0131 1.88991 12.3454C2.13263 15.6773 4.74966 17.5929 7.01625 17.9166C9.28285 18.2404 11.7916 17.3055 13.1948 14.8324C13.3295 14.5307 13.478 14.3149 13.1948 14.0449C13.1948 14.0449 12.8305 13.7617 12.547 14.1932C12.2638 14.6249 11.8456 15.7178 10.308 16.5C9.36357 16.9857 8.10891 17.4174 6.36882 16.8915C4.62844 16.3653 2.47013 14.3687 2.75363 11.5629C2.94235 10.079 3.44157 8.90538 5.00644 7.69151C5.33016 7.39479 5.31666 7.19257 5.16816 7.01707C5.01994 6.84157 4.79044 6.80107 4.57472 6.93607C4.35844 7.07135 4.22372 7.17907 4.22372 7.17907Z" fill="#937F50"/>
</g>
<defs>
<clipPath id="clip0">
<rect width="18" height="18" fill="white"/>
</clipPath>
</defs>
</svg>
