<svg width="20" height="20" viewBox="0 0 20 20" fill="none" xmlns="http://www.w3.org/2000/svg">
<g clip-path="url(#clip0)">
<path d="M13.3594 9.61295C13.5751 9.61295 13.75 9.43808 13.75 9.22232V9.22217C13.75 9.00641 13.5751 8.83154 13.3594 8.83154C13.1438 8.83154 12.9688 9.00656 12.9688 9.22232C12.9688 9.43808 13.1438 9.61295 13.3594 9.61295Z" fill="#937F50" stroke="#937F50" stroke-width="0.5"/>
<path d="M13.2031 14.905C14.1469 15.6195 15.4626 15.6195 16.4062 14.905C16.8781 15.2623 17.4429 15.4409 18.0078 15.4409C18.6879 15.4409 19.3678 15.1821 19.8856 14.6643C20.0381 14.5117 20.0381 14.2644 19.8856 14.1118C19.733 13.9594 19.4858 13.9594 19.3332 14.1118C18.9792 14.4658 18.5085 14.6608 18.0078 14.6608C17.5072 14.6608 17.0364 14.4658 16.6824 14.1118C16.5298 13.9594 16.2827 13.9594 16.1301 14.1118C15.7759 14.4658 15.3053 14.6608 14.8047 14.6608C14.304 14.6608 13.8333 14.4658 13.4793 14.1118C13.3267 13.9594 13.0794 13.9594 12.9268 14.1118C12.6041 14.4345 12.1919 14.6146 11.7694 14.6523C12.6186 14.35 13.2281 13.5385 13.2281 12.5872C13.2281 12.0497 13.0334 11.5572 12.7112 11.1756L17.7345 11.1719C17.9503 11.1718 18.1248 10.9969 18.1248 10.7813C18.1248 10.2597 17.9216 9.76932 17.5526 9.40067C17.184 9.03247 16.6943 8.82983 16.1736 8.82983C16.1729 8.82983 16.1722 8.82983 16.1714 8.82983L14.8824 8.83075C14.6667 8.8309 14.4919 9.00592 14.492 9.22168C14.4922 9.43729 14.6671 9.612 14.8827 9.612H14.883L16.1722 9.61108H16.1734C16.4857 9.61108 16.7795 9.73254 17.0004 9.95334C17.1263 10.0791 17.2198 10.2283 17.2774 10.3911L10.9435 10.3957C10.9192 10.3957 10.8957 10.3981 10.8727 10.4024C9.7406 10.4866 8.84506 11.4341 8.84506 12.5872C8.84506 13.2421 9.13422 13.8303 9.59091 14.2322C8.85544 14.84 7.76108 14.8 7.07306 14.112C6.92047 13.9594 6.67313 13.9594 6.52054 14.112C6.16653 14.466 5.69595 14.6608 5.19516 14.6608C4.81674 14.6608 4.45541 14.5493 4.14856 14.3419L4.68826 13.7149C6.0321 12.1537 7.63657 10.8733 9.45724 9.9097C9.82208 9.71652 10.2332 9.61444 10.6462 9.61444L11.758 9.61368C11.9737 9.61353 12.1484 9.43851 12.1483 9.22275C12.1481 9.00714 11.9733 8.83243 11.7577 8.83243C11.7577 8.83243 11.7575 8.83243 11.7574 8.83243L10.6459 8.83319C10.1062 8.83319 9.56879 8.96671 9.0918 9.21909C7.1846 10.2286 5.50385 11.5697 4.09607 13.2053L3.30841 14.1205C2.95547 14.4689 2.48871 14.6608 1.99219 14.6608C1.49155 14.6608 1.02081 14.4658 0.666809 14.1118C0.514221 13.9594 0.267029 13.9594 0.114441 14.1118C-0.038147 14.2644 -0.038147 14.5117 0.114441 14.6643C1.06232 15.6121 2.55386 15.6923 3.59375 14.905C4.53751 15.6195 5.85327 15.6195 6.79688 14.905C7.74063 15.6195 9.0564 15.6195 10 14.905C10.9438 15.6195 12.2595 15.6195 13.2031 14.905ZM11.0367 11.1769C11.8143 11.1769 12.4471 11.8096 12.4471 12.5872C12.4471 13.3649 11.8144 13.9975 11.0367 13.9975C10.2591 13.9975 9.62646 13.3649 9.62646 12.5872C9.62646 11.8096 10.2591 11.1769 11.0367 11.1769Z" fill="#937F50" stroke="#937F50" stroke-width="0.5"/>
<path d="M19.3332 16.5594C18.6024 17.2903 17.4133 17.2903 16.6826 16.5594C16.53 16.407 16.2827 16.407 16.1301 16.5594C15.3993 17.2903 14.2102 17.2903 13.4795 16.5594C13.3269 16.407 13.0795 16.407 12.9269 16.5594C12.1962 17.2903 11.0071 17.2903 10.2763 16.5594C10.1237 16.407 9.8764 16.407 9.72382 16.5594C9.57123 16.712 9.57123 16.9593 9.72382 17.1119C10.6715 18.0596 12.1631 18.1401 13.203 17.3529C13.6617 17.7012 14.2188 17.8897 14.8047 17.8897C15.3906 17.8897 15.9477 17.7012 16.4066 17.3529C17.4464 18.1401 18.938 18.0596 19.8856 17.1119C20.0381 16.9593 20.0381 16.712 19.8856 16.5594C19.733 16.407 19.4858 16.407 19.3332 16.5594Z" fill="#937F50" stroke="#937F50" stroke-width="0.5"/>
<path d="M6.52069 18.6688C5.78995 19.3997 4.60083 19.3997 3.87009 18.6688C3.7175 18.5163 3.47015 18.5163 3.31757 18.6688C2.58682 19.3997 1.39771 19.3997 0.666962 18.6688C0.514374 18.5163 0.267029 18.5163 0.114441 18.6688C-0.038147 18.8214 -0.038147 19.0687 0.114441 19.2213C1.06232 20.169 2.55386 20.2494 3.59375 19.4621C4.06555 19.8193 4.63043 19.9978 5.19531 19.9978C5.8754 19.9978 6.55533 19.739 7.07306 19.2213C7.22565 19.0687 7.22565 18.8214 7.07306 18.6688C6.92047 18.5163 6.67328 18.5163 6.52069 18.6688Z" fill="#937F50" stroke="#937F50" stroke-width="0.5"/>
<path d="M3.73047 5.52734C4.72122 5.52734 5.52734 4.72137 5.52734 3.73047C5.52734 2.73972 4.72122 1.93359 3.73047 1.93359C2.73972 1.93359 1.93359 2.73972 1.93359 3.73047C1.93359 4.72137 2.73972 5.52734 3.73047 5.52734ZM3.73047 2.71484C4.29047 2.71484 4.74609 3.17047 4.74609 3.73047C4.74609 4.29047 4.29047 4.74609 3.73047 4.74609C3.17047 4.74609 2.71484 4.29047 2.71484 3.73047C2.71484 3.17047 3.17047 2.71484 3.73047 2.71484Z" fill="#937F50" stroke="#937F50" stroke-width="0.5"/>
<path d="M3.73047 1.02081C3.94623 1.02081 4.12109 0.845795 4.12109 0.630188V0.390625C4.12109 0.174866 3.94623 0 3.73047 0C3.51486 0 3.33984 0.174866 3.33984 0.390625V0.630188C3.33984 0.845795 3.51486 1.02081 3.73047 1.02081Z" fill="#937F50" stroke="#937F50" stroke-width="0.5"/>
<path d="M3.33984 6.83093V7.07034C3.33984 7.2861 3.51486 7.46097 3.73047 7.46097C3.94623 7.46097 4.12109 7.2861 4.12109 7.07034V6.83093C4.12109 6.61517 3.94623 6.44031 3.73047 6.44031C3.51486 6.44031 3.33984 6.61517 3.33984 6.83093Z" fill="#937F50" stroke="#937F50" stroke-width="0.5"/>
<path d="M6.83081 4.12109H7.07022C7.28598 4.12109 7.46085 3.94623 7.46085 3.73047C7.46085 3.51471 7.28598 3.33984 7.07022 3.33984H6.83081C6.61505 3.33984 6.44019 3.51471 6.44019 3.73047C6.44019 3.94623 6.61505 4.12109 6.83081 4.12109Z" fill="#937F50" stroke="#937F50" stroke-width="0.5"/>
<path d="M0.390625 4.12109H0.630188C0.845795 4.12109 1.02081 3.94623 1.02081 3.73047C1.02081 3.51471 0.845795 3.33984 0.630188 3.33984H0.390625C0.175018 3.33984 0 3.51471 0 3.73047C0 3.94623 0.175018 4.12109 0.390625 4.12109Z" fill="#937F50" stroke="#937F50" stroke-width="0.5"/>
<path d="M1.26208 5.64605L1.09271 5.81542C0.940125 5.96801 0.940125 6.2152 1.09271 6.36779C1.16885 6.44408 1.26895 6.48223 1.3689 6.48223C1.46884 6.48223 1.56879 6.44408 1.64508 6.36794L1.81445 6.19857C1.96704 6.04598 1.96704 5.79879 1.81445 5.6462C1.66202 5.49361 1.41467 5.49361 1.26208 5.64605Z" fill="#937F50" stroke="#937F50" stroke-width="0.5"/>
<path d="M5.92402 1.92889C6.02411 1.92889 6.12406 1.89075 6.2002 1.81445L6.36957 1.64523C6.52216 1.49265 6.52216 1.2453 6.36972 1.09271C6.21714 0.940125 5.96979 0.940125 5.8172 1.09271L5.64783 1.26208C5.4954 1.41452 5.49524 1.66187 5.64783 1.81445C5.72412 1.89075 5.82407 1.92889 5.92402 1.92889Z" fill="#937F50" stroke="#937F50" stroke-width="0.5"/>
<path d="M1.26162 1.81445C1.33791 1.89075 1.43785 1.92889 1.5378 1.92889C1.63774 1.92889 1.73769 1.89075 1.81398 1.81445C1.96657 1.66187 1.96657 1.41452 1.81398 1.26193L1.64461 1.09271C1.49202 0.940125 1.24468 0.940125 1.09209 1.09271C0.939655 1.2453 0.939655 1.49265 1.09224 1.64508L1.26162 1.81445Z" fill="#937F50" stroke="#937F50" stroke-width="0.5"/>
<path d="M5.81736 6.36789C5.8935 6.44403 5.9936 6.48218 6.09339 6.48218C6.19349 6.48218 6.29343 6.44403 6.36972 6.36774C6.52216 6.21515 6.52216 5.96796 6.36957 5.81537L6.2002 5.646C6.04761 5.49341 5.80042 5.49356 5.64783 5.646C5.49524 5.79859 5.4954 6.04593 5.64783 6.19852L5.81736 6.36789Z" fill="#937F50" stroke="#937F50" stroke-width="0.5"/>
</g>
<defs>
<clipPath id="clip0">
<rect width="20" height="20" fill="white"/>
</clipPath>
</defs>
</svg>
