<svg width="18" height="18" viewBox="0 0 18 18" fill="none" xmlns="http://www.w3.org/2000/svg">
<path d="M15.364 2.63604C13.6642 0.936143 11.404 0 9 0C6.59602 0 4.33594 0.936143 2.63604 2.63604C0.936172 4.33594 0 6.59602 0 9C0 11.404 0.936172 13.6641 2.63604 15.364C4.33591 17.0638 6.59605 18 9 18C11.4039 18 13.6641 17.0638 15.364 15.364C17.0639 13.6641 18 11.404 18 9C18 6.59599 17.0639 4.33594 15.364 2.63604ZM2.6436 4.31957L2.68051 4.34059C2.71637 4.36102 3.4933 4.79895 4.52932 4.95639C4.94204 5.032 5.36312 5.07105 5.78848 5.07102C6.47998 5.07099 7.16315 4.96875 7.82111 4.76724C8.50317 5.60308 8.97247 6.56138 9.22541 7.63119C8.26677 7.92693 7.10092 8.08292 5.83216 8.08292C3.84763 8.08292 1.87922 7.70331 0.794185 7.12462C1.05031 6.00352 1.53109 4.96722 2.18621 4.0652C2.33587 4.15593 2.48837 4.24075 2.6436 4.31957ZM9.44699 9.60898C9.44699 10.4478 9.31157 11.2754 9.05279 12.0613C8.09898 12.2958 6.99147 12.4197 5.83636 12.4197C3.92753 12.4197 2.06644 12.0812 0.977486 11.5465C0.721813 10.7428 0.583406 9.8873 0.583406 9.00003C0.583406 8.49022 0.629011 7.99086 0.716272 7.5058C1.87482 8.08304 3.85235 8.45797 5.83221 8.45797C7.1234 8.45797 8.31516 8.2997 9.30338 7.9995C9.3988 8.51221 9.44699 9.04899 9.44699 9.60898ZM5.01311 15.511C5.01317 15.511 5.01317 15.511 5.01322 15.511C5.17033 15.511 5.32823 15.5078 5.48388 15.5015C5.64314 15.6678 6.10079 16.1148 6.81442 16.5649C7.2803 16.8587 7.91048 17.1846 8.67119 17.4096C6.73162 17.3347 4.95855 16.6006 3.56997 15.4251C3.9551 15.4714 4.44874 15.511 5.01311 15.511ZM4.94412 15.1332C4.33619 15.1332 3.70752 15.0775 3.07138 14.9683C2.23986 14.1422 1.57973 13.1442 1.14885 12.0326C2.31095 12.5038 4.05861 12.7947 5.83633 12.7947C6.92529 12.7947 7.97518 12.687 8.90109 12.4819C8.59151 13.2684 8.15504 14.0052 7.60346 14.6595C6.89929 14.9693 5.9827 15.1332 4.94412 15.1332ZM9.5613 11.9321C10.0201 10.5519 10.093 8.78101 9.71624 7.66637L9.71391 7.65949C9.42576 6.44008 8.86696 5.31876 8.14606 4.54978C8.70853 3.99678 9.58855 3.54357 10.5935 3.258C11.8268 4.20463 12.615 6.13636 12.707 8.45396C12.8252 11.432 11.7729 14.2584 9.95601 15.8662C9.20618 15.6332 8.50636 15.2783 8.00663 14.7899C8.78911 13.8187 9.27394 12.8453 9.5613 11.9321ZM12.9476 2.92734C13.2704 2.92734 13.581 2.94689 13.8766 2.98477C15.4978 4.75553 16.2739 7.19776 16.063 9.87213C15.9615 11.1593 15.6294 12.4308 15.1024 13.5493C14.5892 14.6389 13.9144 15.5346 13.1489 16.1433C12.8666 16.1887 12.556 16.2128 12.2249 16.2128C11.652 16.2128 11.0101 16.139 10.3828 15.9847C11.2713 15.1404 11.9824 14.0112 12.4503 12.6961C12.9214 11.3725 13.1397 9.9004 13.0817 8.43907C12.9908 6.14966 12.2364 4.2079 11.0428 3.14324C11.6573 3.00421 12.3055 2.92734 12.9476 2.92734ZM14.2963 15.5362C15.4723 14.1284 16.2648 12.0837 16.437 9.90165C16.6424 7.29698 15.9428 4.90076 14.4614 3.08857C14.7282 3.15009 14.9785 3.22879 15.2094 3.32424C16.5795 4.82194 17.4167 6.81498 17.4167 9.00003C17.4167 11.6356 16.1986 13.9917 14.2963 15.5362ZM14.061 2.632L14.05 2.62018L13.9845 2.61089C13.9653 2.60816 13.5084 2.54435 12.8564 2.54435C11.9876 2.54435 11.2177 2.65411 10.5682 2.87063L10.5601 2.87333C9.4055 3.1895 8.40355 3.72119 7.78244 4.38623C7.13817 4.59161 6.46767 4.69597 5.78848 4.696C5.60163 4.696 5.41577 4.68722 5.23102 4.67171C5.50556 4.35102 6.04939 3.76586 6.80853 3.1862C7.83583 2.40179 9.48038 1.4667 11.4809 1.4667C12.0345 1.4667 12.5937 1.53833 13.1492 1.67935C13.6779 1.9802 14.1711 2.33669 14.6206 2.74077C14.4408 2.69685 14.2539 2.66073 14.061 2.632ZM9.66919 0.609945C10.4543 0.672002 11.2093 0.84229 11.9195 1.10578C11.7731 1.09643 11.6268 1.09171 11.4809 1.09171C9.37121 1.09171 7.64685 2.07244 6.57176 2.89518C5.60467 3.63526 4.98731 4.36748 4.79247 4.61246C4.71461 4.60411 4.63835 4.5934 4.56305 4.58149C4.04327 4.48346 3.53831 4.32258 3.05697 4.10268C4.32724 2.37457 6.15875 1.50705 7.49301 1.08154C8.38111 0.798276 9.16927 0.668706 9.66919 0.609945ZM10.3388 17.3098C8.14873 17.2252 6.57505 16.0037 5.97286 15.4525C6.6254 15.3793 7.2129 15.2343 7.70893 15.0228C8.17189 15.4874 8.8298 15.875 9.62475 16.1514L9.61205 16.1623L9.93643 16.2635C9.98078 16.2773 11.0369 16.6025 12.2286 16.6026C12.2286 16.6026 12.2287 16.6026 12.2289 16.6026C12.369 16.6026 12.5058 16.598 12.6387 16.5888C11.9222 16.9337 11.1496 17.1796 10.3388 17.3098ZM7.24569 0.767787C5.8546 1.23069 4.00445 2.14893 2.71591 3.93484C2.61413 3.88099 2.51369 3.82436 2.41446 3.76503C3.60929 2.26506 5.30473 1.18096 7.24569 0.767787Z" fill="#937F50" stroke="#937F50" stroke-width="0.5"/>
</svg>
