<svg width="18" height="18" viewBox="0 0 18 18" fill="none" xmlns="http://www.w3.org/2000/svg">
<g clip-path="url(#clip0)">
<path d="M16.706 1.55644C16.6459 1.30331 16.4186 1.125 16.1593 1.125C16.1582 1.125 16.157 1.125 16.1559 1.125C13.1932 1.14356 5.98873 1.64025 3.08005 5.83875C1.56917 8.02012 1.43924 10.8523 2.69361 14.2566C2.70317 14.283 2.72286 14.301 2.7358 14.3252C2.28748 15.435 2.11367 16.1736 2.10917 16.1944C2.04392 16.4981 2.23799 16.7974 2.54174 16.8626C2.58111 16.8711 2.62049 16.875 2.65986 16.875C2.91917 16.875 3.15261 16.6944 3.20942 16.4306C3.22123 16.3732 4.65449 10.5958 9.72149 7.218C9.98024 7.04588 10.05 6.69656 9.8773 6.43781C9.70461 6.17906 9.35586 6.10875 9.09711 6.282C6.22386 8.19731 4.45423 10.7865 3.41361 12.8385C2.66886 10.2634 2.86405 8.12644 4.00536 6.47944C6.25142 3.23719 11.5789 2.45531 14.7947 2.28994C14.1028 3.303 13.3468 5.16037 13.3468 8.4375C13.3468 10.1925 12.849 11.5436 11.868 12.4537C10.2952 13.9112 7.74036 14.0479 5.87174 13.9073C5.56123 13.8819 5.2918 14.1159 5.26817 14.4259C5.24455 14.7352 5.47686 15.0052 5.78623 15.0289C6.1603 15.0576 6.55967 15.075 6.9748 15.075C8.87717 15.075 11.0962 14.7021 12.6324 13.2784C13.853 12.1472 14.4718 10.5188 14.4718 8.43806C14.4718 3.31988 16.4012 2.19656 16.4107 2.1915C16.6447 2.07394 16.7674 1.81069 16.706 1.55644Z" fill="#937F50"/>
</g>
<defs>
<clipPath id="clip0">
<rect width="18" height="18" fill="white"/>
</clipPath>
</defs>
</svg>
