<svg width="18" height="18" viewBox="0 0 18 18" fill="none" xmlns="http://www.w3.org/2000/svg">
<path fill-rule="evenodd" clip-rule="evenodd" d="M3 6.75V5.2695H4.5V6.75H8.25V3.75H9.75V6.75H13.5V5.25H15V6.75H15.5662C16.9185 6.81825 17.9985 7.9845 17.9985 9.38925C17.9985 10.11 17.712 10.761 17.25 11.2327V18H0.75V11.235C0.4275 10.9065 0.18975 10.4903 0.075 10.0192C0.02475 9.81225 0 9.60075 0 9.3885C0 7.88175 1.22175 6.77925 2.4315 6.75H3ZM15.75 15H2.25V16.5H15.75V15ZM2.25 11.9797V13.5H15.75V11.9797L15.4447 11.9985C14.8635 11.9985 14.289 11.796 13.8292 11.406C13.3972 11.772 12.8295 11.9977 12.213 11.9977C11.604 11.9977 11.0385 11.7765 10.6065 11.4135C10.1708 11.7788 9.60075 11.9985 9.0045 11.9985C8.39925 11.9985 7.82325 11.7795 7.39275 11.4135C6.95325 11.7818 6.38325 11.9985 5.79 11.9985C5.20875 11.9985 4.6455 11.8035 4.17 11.406C3.74925 11.7653 3.174 11.9985 2.5545 11.9985L2.25 11.9797ZM2.4675 8.25C1.99725 8.28675 1.53525 8.72625 1.5015 9.31575C1.46325 9.981 1.9755 10.5045 2.592 10.4977C3.474 10.4872 4.02825 9.85275 4.17975 9C4.3425 9.66 4.91925 10.4812 5.7885 10.497C6.6555 10.5128 7.281 9.77775 7.40925 9.0285L7.41525 9C7.5645 9.78 8.15775 10.497 8.997 10.497C9.86325 10.497 10.4348 9.843 10.626 9C10.812 9.8535 11.4023 10.4955 12.2137 10.4977C13.0448 10.5 13.68 9.80175 13.866 9C14.007 9.621 14.469 10.4888 15.4042 10.4985C15.9735 10.5045 16.4993 10.011 16.4993 9.38625C16.4993 8.7585 16.0125 8.2755 15.5107 8.2485L2.4675 8.25ZM3.11475 4.91175C1.692 4.446 2.1015 2.32875 3.78225 1.5195C3.84225 2.586 5.25 2.694 5.25 3.771C5.25 4.2225 4.91925 4.7265 4.437 4.91175C4.5525 4.53 4.2975 3.84975 3.777 3.555C3.2505 3.86025 2.97975 4.5315 3.11475 4.91175ZM13.614 4.89225C12.192 4.4265 12.6015 2.30925 14.2822 1.5C14.3422 2.5665 15.75 2.6745 15.75 3.7515C15.75 4.203 15.4193 4.707 14.937 4.89225C15.0518 4.5105 14.7975 3.83025 14.277 3.5355C13.7505 3.84075 13.4798 4.512 13.614 4.89225ZM8.36475 3.39225C6.942 2.9265 7.3515 0.80925 9.03225 0C9.09225 1.0665 10.5 1.1745 10.5 2.2515C10.5 2.703 10.1693 3.207 9.687 3.39225C9.80175 3.0105 9.5475 2.33025 9.027 2.0355C8.5005 2.34075 8.22975 3.012 8.36475 3.39225Z" fill="#937F50"/>
</svg>
