<svg width="20" height="20" viewBox="0 0 20 20" fill="none" xmlns="http://www.w3.org/2000/svg">
<g clip-path="url(#clip0)">
<path d="M3.34583 2.62695C2.30075 2.62695 1.45044 3.47723 1.45044 4.52235C1.45044 5.56751 2.30071 6.41774 3.34583 6.41774C4.39099 6.41774 5.24127 5.56747 5.24127 4.52235C5.24127 3.47723 4.39099 2.62695 3.34583 2.62695ZM3.34587 5.82981C2.62493 5.82981 2.03837 5.24333 2.03837 4.52235C2.03837 3.80137 2.62489 3.21488 3.34587 3.21488C4.06685 3.21488 4.65338 3.80141 4.65338 4.52235C4.65338 5.24329 4.06681 5.82981 3.34587 5.82981Z" fill="#937F50" stroke="#937F50" stroke-width="0.5"/>
<path d="M3.34399 1.17737C3.18161 1.17737 3.05005 1.30897 3.05005 1.47131V2.06264C3.05005 2.22499 3.18161 2.35659 3.34399 2.35659C3.50638 2.35659 3.63794 2.22499 3.63794 2.06264V1.47131C3.63794 1.30897 3.50638 1.17737 3.34399 1.17737Z" fill="#937F50" stroke="#937F50" stroke-width="0.5"/>
<path d="M5.71078 2.15732C5.59593 2.04255 5.40984 2.04251 5.295 2.15732L4.87687 2.57544C4.76207 2.69025 4.76207 2.87638 4.87687 2.99115C4.9343 3.04857 5.00949 3.07724 5.08476 3.07724C5.15996 3.07724 5.23523 3.04857 5.29265 2.99118L5.71078 2.57306C5.82558 2.45825 5.82558 2.27212 5.71078 2.15732Z" fill="#937F50" stroke="#937F50" stroke-width="0.5"/>
<path d="M6.39744 4.22833H5.80615C5.64377 4.22833 5.51221 4.35993 5.51221 4.52228C5.51221 4.68462 5.64377 4.81622 5.80615 4.81622H6.39744C6.55983 4.81622 6.69139 4.68462 6.69139 4.52228C6.69139 4.35993 6.55983 4.22833 6.39744 4.22833Z" fill="#937F50" stroke="#937F50" stroke-width="0.5"/>
<path d="M5.71078 6.47239L5.29265 6.0543C5.17777 5.9395 4.99168 5.9395 4.87687 6.0543C4.76207 6.16911 4.76207 6.35524 4.87687 6.47001L5.295 6.88813C5.35242 6.94551 5.42765 6.97422 5.50289 6.97422C5.57812 6.97422 5.65335 6.94555 5.71078 6.88813C5.82558 6.77333 5.82558 6.58719 5.71078 6.47239Z" fill="#937F50" stroke="#937F50" stroke-width="0.5"/>
<path d="M3.34399 6.68866C3.18161 6.68866 3.05005 6.82026 3.05005 6.98261V7.57393C3.05005 7.73628 3.18161 7.86788 3.34399 7.86788C3.50638 7.86788 3.63794 7.73628 3.63794 7.57393V6.98261C3.63794 6.82026 3.50638 6.68866 3.34399 6.68866Z" fill="#937F50" stroke="#937F50" stroke-width="0.5"/>
<path d="M1.81258 6.0543C1.69778 5.9395 1.51168 5.9395 1.39684 6.0543L0.978716 6.47239C0.863872 6.58719 0.863872 6.77333 0.978677 6.88813C1.0361 6.94551 1.11129 6.97422 1.18657 6.97422C1.26176 6.97422 1.33704 6.94555 1.39446 6.88813L1.81258 6.47001C1.92735 6.3552 1.92735 6.16907 1.81258 6.0543Z" fill="#937F50" stroke="#937F50" stroke-width="0.5"/>
<path d="M0.885236 4.22833H0.293946C0.131563 4.22833 0 4.35993 0 4.52228C0 4.68462 0.131563 4.81622 0.293946 4.81622H0.885236C1.04762 4.81622 1.17918 4.68462 1.17918 4.52228C1.17918 4.35993 1.04762 4.22833 0.885236 4.22833Z" fill="#937F50" stroke="#937F50" stroke-width="0.5"/>
<path d="M1.81259 2.57509L1.39442 2.15697C1.27958 2.04216 1.09349 2.04216 0.978682 2.15697C0.863877 2.27177 0.863877 2.4579 0.978682 2.57271L1.39681 2.99083C1.45423 3.04822 1.52946 3.07689 1.6047 3.07689C1.67989 3.07689 1.75517 3.04822 1.81259 2.9908C1.92736 2.87599 1.92736 2.68986 1.81259 2.57509Z" fill="#937F50" stroke="#937F50" stroke-width="0.5"/>
<path d="M19.8561 17.8587C19.3437 17.5112 18.7497 17.3538 18.1631 17.3855C17.6217 16.6397 16.6003 16.0003 15.1931 15.5291C14.3196 15.2366 13.3448 15.0254 12.3084 14.9001L14.4144 9.61604C14.7322 9.84553 15.0096 10.1181 15.2362 10.4265C15.3112 10.5284 15.4267 10.5861 15.5542 10.5551C16.2498 10.4289 16.9874 10.5098 17.6882 10.789C18.3941 11.0704 18.9886 11.5237 19.4072 12.0998C19.4633 12.1771 19.5523 12.221 19.645 12.221C19.6685 12.221 19.6923 12.2182 19.7158 12.2123C19.8319 12.1835 19.9191 12.0871 19.936 11.9686C19.9471 11.8908 20.2016 10.0405 19.5953 8.02467C19.5485 7.8692 19.3842 7.78112 19.2291 7.82783C19.0737 7.87459 18.9855 8.03854 19.0323 8.19397C19.3862 9.37069 19.4249 10.5085 19.4032 11.2025C18.9836 10.7965 18.4758 10.47 17.9058 10.2428C17.2578 9.98456 16.5798 9.87475 15.9198 9.91862C15.9248 9.90342 15.9293 9.88858 15.9342 9.87346C16.1639 9.17174 16.3352 8.44858 16.4194 7.71447C16.4965 7.04272 16.5037 6.36416 16.4191 5.69275C16.3701 5.30392 16.2868 4.91935 16.1672 4.54607C16.1663 4.54337 16.1655 4.54048 16.1646 4.53779C17.2193 5.10923 18.0301 5.95127 18.5804 7.04889C18.6532 7.194 18.8298 7.25264 18.9749 7.1799C19.12 7.10717 19.1787 6.93053 19.1059 6.78537C18.3765 5.33045 17.2319 4.28392 15.7032 3.67451C13.6005 2.83657 11.4121 3.1122 9.37479 4.47162C7.85401 5.48635 6.9635 6.73096 6.92631 6.78342C6.85713 6.88107 6.85412 7.01092 6.91862 7.1117C6.98311 7.21248 7.10209 7.26416 7.21994 7.24225C7.92022 7.11205 8.6635 7.19193 9.36944 7.4733C10.0651 7.75061 10.6526 8.19483 11.0703 8.75912C11.1515 8.86889 11.27 8.93639 11.4091 8.89506C11.7824 8.82889 12.1676 8.82233 12.5526 8.87381L10.2041 14.7666C10.1448 14.7661 10.0858 14.765 10.0263 14.765C8.67147 14.765 7.37666 14.9 6.17787 15.1662C6.0194 15.2014 5.91944 15.3584 5.95467 15.5169C5.98986 15.6753 6.14658 15.7753 6.30533 15.7401C7.44604 15.4868 8.73276 15.353 10.0263 15.353C10.6394 15.353 11.253 15.3821 11.8631 15.4427C11.8653 15.4429 11.8674 15.4429 11.8697 15.443C13.0043 15.5555 14.0677 15.7721 15.0064 16.0864C16.1269 16.4617 16.992 16.9562 17.4998 17.5043C17.2436 17.5839 16.9958 17.7019 16.7647 17.8586C16.0262 18.3594 15.0719 18.3594 14.3333 17.8586C13.3943 17.2218 12.1809 17.2218 11.242 17.8586C10.5035 18.3594 9.54916 18.3594 8.81065 17.8586C7.87166 17.2218 6.65822 17.2218 5.71928 17.8586C4.9808 18.3594 4.02647 18.3594 3.28795 17.8586C3.05686 17.7019 2.80908 17.5839 2.55291 17.5043C3.05998 16.957 3.92354 16.463 5.04186 16.088C5.19576 16.0364 5.27869 15.8697 5.22709 15.7158C5.17549 15.5619 5.00893 15.4789 4.85494 15.5305C3.45022 16.0016 2.43041 16.6405 1.88959 17.3854C1.30299 17.3537 0.708964 17.5112 0.19662 17.8586C0.0622445 17.9497 0.0272054 18.1325 0.118338 18.2669C0.209432 18.4013 0.392089 18.4363 0.52662 18.3452C0.962948 18.0493 1.47467 17.9283 1.97268 17.9821C1.99057 17.986 2.00861 17.9884 2.02674 17.9889C2.35283 18.0325 2.67166 18.151 2.95803 18.3452C3.89693 18.982 5.11033 18.9821 6.04936 18.3452C6.78791 17.8444 7.74229 17.8444 8.48073 18.3452C9.41967 18.982 10.6331 18.9821 11.5721 18.3452C12.3106 17.8444 13.2649 17.8444 14.0034 18.3452C14.4729 18.6636 15.011 18.8229 15.5491 18.8229C16.0872 18.8229 16.6253 18.6636 17.0948 18.3452C17.3805 18.1515 17.6986 18.033 18.0239 17.9892C18.0432 17.9888 18.0624 17.9862 18.0814 17.982C18.5791 17.9286 19.0903 18.0495 19.5262 18.3452C19.6606 18.4363 19.8434 18.4013 19.9345 18.2669C20.0255 18.1326 19.9904 17.9498 19.8561 17.8587ZM11.808 8.25799C11.8111 8.25135 11.8144 8.24479 11.8175 8.23815C12.0914 7.66494 12.4108 7.11088 12.7834 6.59596C12.8745 6.4701 12.8484 6.28014 12.7176 6.18549C12.5897 6.09287 12.3995 6.12361 12.3071 6.25131C12.0079 6.66471 11.7421 7.10225 11.5035 7.55322C11.4174 7.71619 11.3298 7.88112 11.2559 8.05014C11.2546 8.05287 11.2533 8.05561 11.252 8.05834C10.8029 7.57236 10.2354 7.18568 9.58713 6.9274C9.01694 6.70014 8.4235 6.58791 7.83967 6.594C8.23213 6.15264 8.87682 5.50834 9.71604 4.95091C10.5481 4.39818 11.4071 4.03736 12.2688 3.87849C13.1025 3.72482 13.9437 3.76087 14.7785 3.98513C14.7751 3.98697 14.7715 3.989 14.7682 3.99083C14.3166 4.23869 13.8979 4.54451 13.5177 4.89173C13.3694 5.02716 13.2248 5.16638 13.0862 5.31166C12.9742 5.42916 12.9786 5.61525 13.0961 5.72728C13.2136 5.83931 13.3996 5.8349 13.5117 5.7174C13.8885 5.32217 14.314 4.96072 14.7784 4.66849C14.9925 4.53377 15.2159 4.41205 15.4492 4.31392C15.5105 4.45294 15.5903 4.65877 15.6651 4.92834C16.0196 6.20525 15.9238 7.58322 15.6131 8.85834C15.5463 9.13256 15.4691 9.4044 15.3815 9.67268C15.3806 9.67545 15.3796 9.67831 15.3787 9.68112C14.9787 9.25792 14.4875 8.91237 13.9314 8.66366C13.9237 8.66026 13.9161 8.65686 13.9085 8.6535C13.2508 8.36319 12.5269 8.2183 11.808 8.25799ZM11.7006 14.8368C11.5643 14.825 11.4271 14.8149 11.2891 14.806C11.1365 14.7955 10.9837 14.7878 10.831 14.7816L13.1364 8.99729C13.276 9.03725 13.4133 9.08479 13.5478 9.1392C13.5696 9.14807 13.9065 9.30237 13.9058 9.30393L11.7006 14.8368Z" fill="#937F50" stroke="#937F50" stroke-width="0.5"/>
</g>
<defs>
<clipPath id="clip0">
<rect width="20" height="20" fill="white"/>
</clipPath>
</defs>
</svg>
