<svg width="18" height="18" viewBox="0 0 18 18" fill="none" xmlns="http://www.w3.org/2000/svg">
<path d="M4.32011 9.71999C2.13671 9.71999 0.360107 11.4966 0.360107 13.68C0.360107 15.8634 2.13671 17.64 4.32011 17.64C5.65571 17.64 6.90743 16.9553 7.63535 15.84H10.3645C11.0928 16.9553 12.3445 17.64 13.6797 17.64C15.8631 17.64 17.6397 15.8634 17.6397 13.68C17.6397 11.4966 15.8631 9.71999 13.6797 9.71999H9.36011V8.99998C9.36011 8.20582 8.71427 7.55999 7.92011 7.55999H6.48011C6.08303 7.55999 5.76011 7.23706 5.76011 6.83998C5.76011 6.4429 6.08303 6.11999 6.48011 6.11999H11.5201C12.3143 6.11999 12.9601 5.47414 12.9601 4.67999C12.9601 3.88583 12.3143 3.23999 11.5201 3.23999H10.0801C9.68303 3.23999 9.36011 2.91707 9.36011 2.51999V0.359985H8.64011V2.51999C8.64011 3.31415 9.28595 3.95999 10.0801 3.95999H11.5201C11.9172 3.95999 12.2401 4.28291 12.2401 4.67999C12.2401 5.07706 11.9172 5.39999 11.5201 5.39999H6.48011C5.68595 5.39999 5.04011 6.04583 5.04011 6.83998C5.04011 7.63415 5.68595 8.27998 6.48011 8.27998H7.92011C8.31719 8.27998 8.64011 8.60291 8.64011 8.99998V9.71999H4.32011ZM16.9201 13.68C16.9201 15.4663 15.4664 16.92 13.6801 16.92C12.5303 16.92 11.456 16.299 10.8771 15.2996L10.7735 15.12H7.22747L7.12343 15.2996C6.54455 16.299 5.46995 16.92 4.32011 16.92C2.53379 16.92 1.08011 15.4663 1.08011 13.68C1.08011 11.8937 2.53379 10.44 4.32011 10.44H13.6801C15.4664 10.44 16.9201 11.8937 16.9201 13.68Z" fill="#937F50" stroke="#937F50" stroke-width="0.5"/>
</svg>
