<svg width="18" height="18" viewBox="0 0 18 18" fill="none" xmlns="http://www.w3.org/2000/svg">
<path d="M17.1013 7.60862C17.037 5.80815 16.2767 4.10284 14.9805 2.85159C13.6842 1.60034 11.9531 0.90074 10.1515 0.900024H9.90132V7.60862H4.98912V6.73922C4.98674 6.03871 4.70667 5.36773 4.21031 4.8734C3.71396 4.37907 3.04184 4.10174 2.34132 4.10222H1.91292C1.69167 4.10063 1.47596 4.17135 1.2986 4.30364C1.12125 4.43592 0.991969 4.62253 0.930434 4.83505C0.868899 5.04758 0.878479 5.27439 0.957716 5.48097C1.03695 5.68755 1.18151 5.86259 1.36939 5.97945C1.55726 6.09631 1.77817 6.14859 1.9985 6.12834C2.21883 6.10809 2.42651 6.01641 2.58993 5.86726C2.75336 5.71811 2.86359 5.51965 2.90384 5.30209C2.94409 5.08453 2.91217 4.85977 2.81292 4.66202C3.2854 4.76799 3.70792 5.03118 4.01137 5.40852C4.31481 5.78586 4.4812 6.25501 4.48332 6.73922V7.86242C4.48462 8.91645 4.89229 9.92939 5.62151 10.6905C6.35072 11.4515 7.34531 11.9021 8.39832 11.9484L7.08792 13.2588C6.65526 12.918 6.10874 12.7553 5.5601 12.804C5.01147 12.8527 4.50217 13.1092 4.13637 13.521C3.77057 13.9328 3.57589 14.4688 3.59216 15.0193C3.60842 15.5699 3.83439 16.0934 4.22386 16.4829C4.61334 16.8724 5.13688 17.0983 5.68744 17.1146C6.23799 17.1309 6.77396 16.9362 7.18574 16.5704C7.59753 16.2046 7.85401 15.6953 7.90274 15.1466C7.95148 14.598 7.78878 14.0515 7.44792 13.6188L9.11292 11.9538H11.5969L13.2619 13.6188C12.9211 14.0515 12.7584 14.598 12.8071 15.1466C12.8558 15.6953 13.1123 16.2046 13.5241 16.5704C13.9359 16.9362 14.4719 17.1309 15.0224 17.1146C15.573 17.0983 16.0965 16.8724 16.486 16.4829C16.8754 16.0934 17.1014 15.5699 17.1177 15.0193C17.1339 14.4688 16.9393 13.9328 16.5735 13.521C16.2077 13.1092 15.6984 12.8527 15.1497 12.804C14.6011 12.7553 14.0546 12.918 13.6219 13.2588L12.3133 11.9538H13.0117C14.0562 11.9538 15.0612 11.5549 15.8214 10.8386C16.5815 10.1223 17.0394 9.14266 17.1013 8.10002C17.1013 8.10002 17.1013 7.92002 17.1013 7.86062C17.1013 7.80122 17.1013 7.60862 17.1013 7.60862ZM10.4053 1.41122C12.0246 1.47682 13.5599 2.14949 14.7059 3.29545C15.8519 4.44141 16.5245 5.97672 16.5901 7.59602H10.4053V1.41122ZM1.91472 5.62142C1.78057 5.62142 1.65192 5.56814 1.55707 5.47328C1.46221 5.37842 1.40892 5.24977 1.40892 5.11562C1.40892 4.98148 1.46221 4.85283 1.55707 4.75797C1.65192 4.66311 1.78057 4.60982 1.91472 4.60982C2.04887 4.60982 2.17752 4.66311 2.27238 4.75797C2.36723 4.85283 2.42052 4.98148 2.42052 5.11562C2.42052 5.24977 2.36723 5.37842 2.27238 5.47328C2.17752 5.56814 2.04887 5.62142 1.91472 5.62142ZM7.40112 14.94C7.4025 15.3112 7.27872 15.6721 7.04976 15.9643C6.8208 16.2564 6.50003 16.4629 6.13926 16.5503C5.77849 16.6378 5.39879 16.601 5.06147 16.4461C4.72415 16.2911 4.44892 16.027 4.28022 15.6963C4.11153 15.3656 4.05922 14.9878 4.13174 14.6237C4.20426 14.2596 4.39739 13.9307 4.67992 13.6899C4.96245 13.4491 5.3179 13.3106 5.68885 13.2967C6.0598 13.2829 6.42459 13.3944 6.72432 13.6134L5.88552 14.4522C5.8433 14.4406 5.79972 14.4345 5.75592 14.4342C5.65588 14.4342 5.55809 14.4639 5.47491 14.5195C5.39174 14.575 5.32691 14.654 5.28862 14.7465C5.25034 14.8389 5.24032 14.9406 5.25984 15.0387C5.27936 15.1368 5.32753 15.2269 5.39827 15.2977C5.469 15.3684 5.55913 15.4166 5.65724 15.4361C5.75536 15.4556 5.85706 15.4456 5.94948 15.4073C6.04191 15.369 6.1209 15.3042 6.17648 15.221C6.23206 15.1379 6.26172 15.0401 6.26172 14.94C6.26142 14.8962 6.25537 14.8527 6.24372 14.8104L7.08252 13.9716C7.28925 14.2522 7.40089 14.5915 7.40112 14.94ZM14.9413 13.3038C15.3125 13.3024 15.6734 13.4262 15.9656 13.6552C16.2577 13.8841 16.4642 14.2049 16.5516 14.5657C16.6391 14.9265 16.6023 15.3062 16.4474 15.6435C16.2924 15.9808 16.0282 16.256 15.6976 16.4247C15.3669 16.5934 14.989 16.6457 14.625 16.5732C14.2609 16.5007 13.932 16.3076 13.6912 16.025C13.4504 15.7425 13.3119 15.3871 13.298 15.0161C13.2841 14.6451 13.3957 14.2804 13.6147 13.9806L14.4535 14.8194C14.4419 14.8617 14.4358 14.9052 14.4355 14.949C14.4359 15.049 14.4658 15.1466 14.5216 15.2295C14.5774 15.3125 14.6566 15.377 14.749 15.415C14.8415 15.453 14.9431 15.4628 15.0411 15.4431C15.1391 15.4234 15.229 15.3751 15.2996 15.3042C15.3702 15.2334 15.4182 15.1433 15.4375 15.0452C15.4569 14.9472 15.4468 14.8456 15.4084 14.7533C15.3701 14.6609 15.3053 14.582 15.2221 14.5265C15.139 14.471 15.0413 14.4414 14.9413 14.4414C14.8975 14.4417 14.8539 14.4478 14.8117 14.4594L13.9729 13.6206C14.2537 13.4145 14.593 13.3035 14.9413 13.3038ZM13.0099 11.4462H8.57292C7.66674 11.445 6.79458 11.101 6.13152 10.4833C5.46845 9.86565 5.06356 9.02004 4.99812 8.11622H16.5865C16.5211 9.02035 16.1159 9.86621 15.4525 10.4839C14.789 11.1016 13.9164 11.4454 13.0099 11.4462Z" fill="#937F50" stroke="#937F50" stroke-width="0.5"/>
</svg>
