<svg width="20" height="20" viewBox="0 0 20 20" fill="none" xmlns="http://www.w3.org/2000/svg">
<g clip-path="url(#clip0)">
<path d="M18.3755 3.25024C16.6255 1.15649 13.563 0.406494 10.8443 1.37524L10.7193 1.00024C10.5943 0.687744 10.4068 0.468994 10.188 0.406494C10.0943 0.375244 9.87552 0.375244 9.68802 0.531494L9.59427 0.625244C9.59427 0.625244 9.59427 0.656494 9.56302 0.656494L9.62552 0.375244V0.343994C9.62552 0.343994 9.62552 0.343994 9.62552 0.312744C9.62552 0.281494 9.62552 0.281494 9.59427 0.250244C9.59427 0.218994 9.56302 0.218994 9.53177 0.218994C9.53177 0.218994 9.53177 0.218994 9.50052 0.218994H9.46927L8.34427 0.187744C8.31302 0.187744 8.28177 0.187744 8.25052 0.218994L6.87552 1.34399C6.84427 1.37524 6.84427 1.40649 6.81302 1.43774L6.59427 2.56274C6.59427 2.59399 6.59427 2.65649 6.62552 2.68774C6.65677 2.71899 6.68802 2.71899 6.75052 2.71899H7.12552C7.09427 2.75024 7.06302 2.75024 7.03177 2.78149L6.93802 2.87524C6.71927 3.06274 6.71927 3.25024 6.71927 3.34399C6.75052 3.56274 6.90677 3.78149 7.21927 3.96899L7.56302 4.15649C7.12552 4.90649 6.84427 5.78149 6.71927 6.65649V6.68774C5.15677 6.68774 3.65677 7.21899 2.46927 8.25024C-0.343226 10.6252 -0.718226 14.8127 1.65677 17.6252C2.96927 19.1877 4.87552 20.0002 6.75052 20.0002C8.25052 20.0002 9.78177 19.5002 11.0318 18.4377C12.2818 17.3752 13.0943 15.9065 13.3443 14.3127V14.2815C14.7193 14.2815 16.063 13.844 17.2193 13.0002C18.7505 11.8752 19.688 10.2502 19.938 8.37524C20.1255 6.53149 19.563 4.65649 18.3755 3.25024ZM9.43802 2.09399L9.25052 2.25024L9.37552 1.62524L9.43802 2.09399ZM8.71927 1.15649L9.25052 0.750244L9.00052 2.00024L8.71927 1.15649ZM8.75052 2.18774L7.96927 1.75024L8.46927 1.34399L8.75052 2.18774ZM7.78177 1.50024L7.81302 1.09399L8.25052 1.15649L7.78177 1.50024ZM7.68802 2.00024L8.46927 2.43774H7.15677L7.68802 2.00024ZM8.40677 0.468994H9.06302L8.59427 0.843994H8.56302L8.03177 0.781494L8.40677 0.468994ZM7.46927 1.25024L7.43802 1.78149L6.96927 2.15649L7.12552 1.56274L7.46927 1.25024ZM8.68802 2.71899L8.50052 2.87524L7.96927 2.71899H8.68802ZM10.5943 17.969C8.03177 20.094 4.21927 19.7815 2.09427 17.219C1.06302 15.969 0.563024 14.4065 0.719274 12.8127C0.844274 11.219 1.62552 9.75024 2.84427 8.71899C4.00052 7.75024 5.50052 7.25024 7.00052 7.31274C8.68802 7.37524 10.2818 8.18774 11.3443 9.46899C12.0318 10.2815 12.4693 11.2502 12.6568 12.2815C12.4068 12.2502 12.188 12.219 11.938 12.1565C11.7505 11.344 11.3755 10.5627 10.813 9.93774C10.1568 9.15649 9.28177 8.59399 8.31302 8.28149C7.87552 8.15649 7.40677 8.06274 6.96927 8.06274V8.03149C5.62552 7.96899 4.34427 8.40649 3.31302 9.28149C1.03177 11.1877 0.750524 14.5627 2.65677 16.844C3.71927 18.094 5.25052 18.7502 6.78177 18.7502C8.00052 18.7502 9.21927 18.344 10.2193 17.5002C11.2193 16.6565 11.8755 15.5002 12.063 14.219C12.2818 14.2502 12.5005 14.2815 12.7193 14.3127C12.4693 15.6877 11.7193 17.0315 10.5943 17.969ZM13.2818 12.3127C13.0943 11.1252 12.5943 10.0002 11.813 9.06274C10.938 8.03149 9.78177 7.31274 8.53177 6.93774V6.90649C8.68802 5.75024 9.28177 4.68774 10.188 3.93774C11.1568 3.12524 12.3755 2.75024 13.6568 2.84399C14.9068 2.96899 16.063 3.56274 16.8755 4.53149C17.688 5.50024 18.063 6.71899 17.9693 8.00024C17.8443 9.25024 17.2505 10.4065 16.2818 11.219C15.438 11.9065 14.3755 12.2815 13.2818 12.3127ZM11.2193 11.844C10.5943 11.5627 10.063 11.1252 9.59427 10.594C9.21927 10.1252 8.90677 9.59399 8.71927 9.03149C9.34427 9.31274 9.90677 9.75025 10.3443 10.2815C10.7505 10.7502 11.0318 11.2815 11.2193 11.844ZM6.68802 8.59399C6.87552 9.96899 7.43802 11.219 8.37552 12.1877C9.21927 13.094 10.2818 13.6877 11.4068 14.0002C11.4068 14.0002 11.4068 14.0002 11.4068 14.0315C11.2505 15.1877 10.6568 16.219 9.75052 16.969C7.75052 18.6565 4.75052 18.3752 3.06302 16.3752C1.37552 14.3752 1.65677 11.3752 3.65677 9.68774C4.53177 9.00024 5.56302 8.62524 6.68802 8.59399ZM19.2818 8.28149C19.063 9.96899 18.2193 11.469 16.813 12.469C14.3755 14.2815 10.938 13.969 8.84427 11.7815C8.03177 10.9377 7.50052 9.84399 7.31302 8.65649C7.53177 8.68774 7.78177 8.71899 8.00052 8.81274C8.18802 9.62524 8.56302 10.4065 9.12552 11.0315C9.78177 11.8127 10.6255 12.3752 11.5943 12.6877H11.6255C12.0005 12.8127 12.3755 12.8752 12.7818 12.9065C12.8755 12.9065 12.9693 12.9065 13.063 12.9065C13.063 12.9065 13.063 12.9065 13.0943 12.9065C13.1568 12.9065 13.2193 12.9065 13.2818 12.9065C14.5318 12.9065 15.7505 12.469 16.7193 11.6565C17.813 10.7502 18.5005 9.43774 18.6255 8.00024C18.7505 6.56274 18.313 5.18774 17.3755 4.09399C16.4693 3.00024 15.1568 2.31274 13.7193 2.18774C12.2818 2.06274 10.9068 2.50024 9.81302 3.43774C8.81302 4.28149 8.15677 5.46899 7.93802 6.78149C7.75052 6.75024 7.53177 6.71899 7.34427 6.68774C7.46927 5.78149 7.78177 4.93774 8.28177 4.15649C8.31302 4.09399 8.34427 4.00024 8.31302 3.90649C8.28177 3.81274 8.21927 3.78149 8.12552 3.75024L7.53177 3.40649C7.46927 3.37524 7.40677 3.34399 7.37552 3.31274L7.43802 3.28149C7.46927 3.25024 7.53177 3.25024 7.59427 3.28149C7.62552 3.28149 7.62552 3.31274 7.65677 3.31274L8.46927 3.56274C8.56302 3.59399 8.68802 3.56274 8.75052 3.50024L9.96927 2.46899C10.063 2.40649 10.0943 2.28149 10.063 2.18774L9.96927 1.34399C9.96927 1.31274 9.96927 1.28149 9.93802 1.28149C9.90677 1.21899 9.93802 1.15649 9.96927 1.12524L10.0318 1.09399C10.063 1.12524 10.0943 1.18774 10.0943 1.25024L10.3755 1.87524C10.4068 1.96899 10.4693 2.03149 10.5318 2.06274C10.5943 2.09399 10.688 2.09399 10.7818 2.06274C13.313 1.03149 16.2505 1.68774 17.9068 3.65649C19.0005 4.93774 19.4693 6.59399 19.2818 8.28149Z" fill="#937F50"/>
</g>
<defs>
<clipPath id="clip0">
<rect width="20" height="20" fill="white"/>
</clipPath>
</defs>
</svg>
