<svg width="16" height="16" viewBox="0 0 16 16" fill="none" xmlns="http://www.w3.org/2000/svg">
<path d="M5.5 0C5.11625 0 4.76562 0.145 4.5 0.382875C4.23438 0.145 3.88375 0 3.5 0C3.11625 0 2.76562 0.145 2.5 0.382875C2.23438 0.145 1.88375 0 1.5 0C0.672875 0 0 0.672875 0 1.5V5.5C0 6.707 0.63575 7.34275 1.1465 7.8535C1.6235 8.33062 2 8.707 2 9.5V14.5C2 15.3271 2.67287 16 3.5 16C4.32713 16 5 15.3271 5 14.5V9.5C5 8.707 5.3765 8.33062 5.8535 7.8535C6.36425 7.34275 7 6.707 7 5.5V1.5C7 0.672875 6.32713 0 5.5 0ZM6 5.5C6 6.293 5.6235 6.66937 5.1465 7.1465C4.63575 7.65725 4 8.293 4 9.5V14.5C4 14.7764 3.77638 15 3.5 15C3.22362 15 3 14.7764 3 14.5V9.5C3 8.293 2.36425 7.65725 1.8535 7.1465C1.3765 6.66937 1 6.293 1 5.5V1.5C1 1.22362 1.22362 1 1.5 1C1.77638 1 2 1.22362 2 1.5V4.5C2 4.77637 2.22362 5 2.5 5C2.77638 5 3 4.77637 3 4.5V1.5C3 1.22362 3.22362 1 3.5 1C3.77638 1 4 1.22362 4 1.5V4.5C4 4.77637 4.22363 5 4.5 5C4.77637 5 5 4.77637 5 4.5V1.5C5 1.22362 5.22363 1 5.5 1C5.77637 1 6 1.22362 6 1.5V5.5ZM14.8535 8.1465C14.3765 7.66937 14 7.293 14 6.5V1.5C14 0.672875 13.3271 0 12.5 0C11.6729 0 11 0.672875 11 1.5V6.5C11 7.293 10.6235 7.66937 10.1465 8.1465C9.63575 8.65725 9 9.293 9 10.5C9 10.7246 9.0395 16 12.5 16C15.9605 16 16 10.7246 16 10.5C16 9.293 15.3643 8.65725 14.8535 8.1465ZM12.5 15C10.0361 15 10 10.5489 10 10.5C10 9.707 10.3765 9.33063 10.8535 8.8535C11.3643 8.34275 12 7.707 12 6.5V1.5C12 1.22362 12.2236 1 12.5 1C12.7764 1 13 1.22362 13 1.5V6.5C13 7.707 13.6357 8.34275 14.1465 8.8535C14.6235 9.33063 15 9.707 15 10.5C15 10.5449 14.9713 15 12.5 15Z" fill="#937F50"/>
</svg>
