<svg width="18" height="18" viewBox="0 0 18 18" fill="none" xmlns="http://www.w3.org/2000/svg">
<path d="M18 9.15C18 7.95 17.0625 7.3125 15.75 7.3125H11.9625C12.225 6.3 12.375 5.325 12.375 4.5C12.375 1.2375 11.475 0.5625 10.6875 0.5625C10.1625 0.5625 9.7875 0.6 9.2625 0.9375C9.1125 1.0125 9.0375 1.1625 9 1.3125L8.4375 4.35C7.8375 5.9625 6.3 7.35 5.0625 8.2875V16.3125C5.475 16.3125 6 16.5375 6.4875 16.8C7.0875 17.1 7.725 17.4 8.4375 17.4H13.8C14.925 17.4 15.75 16.5 15.75 15.7125C15.75 15.5625 15.75 15.4125 15.7125 15.3C16.425 15.0375 16.875 14.4375 16.875 13.7625C16.875 13.425 16.8 13.125 16.6875 12.9C17.1 12.6 17.55 12.1125 17.55 11.5125C17.55 11.2125 17.4 10.8375 17.175 10.575C17.6625 10.2 18 9.675 18 9.15ZM16.8375 9.15C16.8375 9.8625 16.0875 9.9375 15.975 10.275C15.8625 10.65 16.425 10.8 16.425 11.475C16.425 12.1875 15.5625 12.1875 15.45 12.525C15.3 12.9375 15.7125 13.0875 15.7125 13.7625C15.7125 13.8 15.7125 13.8375 15.7125 13.875C15.6 14.4375 14.7375 14.475 14.5875 14.7C14.4375 14.9625 14.625 15.1125 14.625 15.7125C14.625 16.05 14.25 16.275 13.8 16.275H8.4375C8.025 16.275 7.5 16.05 7.0125 15.7875C6.5625 15.5625 6.1125 15.3375 5.625 15.225V9.2625C7.0125 8.2125 8.8125 6.6 9.525 4.65C9.525 4.6125 9.525 4.575 9.5625 4.575L10.0875 1.7625C10.275 1.6875 10.425 1.6875 10.725 1.6875C10.8375 1.6875 11.2875 2.3625 11.2875 4.5C11.2875 5.325 11.1375 6.2625 10.8375 7.3125H10.6875C10.3875 7.3125 10.125 7.575 10.125 7.875C10.125 8.175 10.3875 8.4375 10.6875 8.4375H15.75C16.3125 8.4375 16.8375 8.7 16.8375 9.15Z" fill="#937F50"/>
<path d="M4.5 17.4375H1.125C0.4875 17.4375 0 16.95 0 16.3125V8.4375C0 7.8 0.4875 7.3125 1.125 7.3125H4.5C5.1375 7.3125 5.625 7.8 5.625 8.4375V16.3125C5.625 16.95 5.1375 17.4375 4.5 17.4375ZM1.125 8.4375V16.3125H4.5V8.4375H1.125Z" fill="#937F50"/>
</svg>
