<svg width="24" height="24" viewBox="0 0 24 24" fill="none" xmlns="http://www.w3.org/2000/svg">
<path fill-rule="evenodd" clip-rule="evenodd" d="M6.109 21.289C7.812 22.372 9.833 23 12 23C14.166 23 16.187 22.372 17.89 21.289L18.508 22.081C16.632 23.295 14.398 24 12 24C9.6 24 7.363 23.294 5.487 22.078L6.109 21.289ZM11.962 8C8.925 8 6.462 10.462 6.462 13.5C6.462 16.537 8.925 19 11.962 19C14.999 19 17.462 16.537 17.462 13.5C17.462 10.462 14.999 8 11.962 8ZM19 19H18C18 17.896 18.896 17 20 17H22C22.963 17 24 17.76 24 19H23C23 18.381 22.481 18 22 18H20C19.448 18 19 18.449 19 19ZM1 19H0C0 17.896 0.896 17 2 17H4C4.963 17 6 17.76 6 19H5C5 18.381 4.481 18 4 18H2C1.448 18 1 18.449 1 19ZM12 9C14.639 9 16.5 10.861 16.5 13.5C16.5 16.139 14.639 18 12 18C9.361 18 7.5 16.139 7.5 13.5C7.5 10.861 9.361 9 12 9ZM21 12C22.242 12 23.25 13.008 23.25 14.25C23.25 15.492 22.242 16.5 21 16.5C19.758 16.5 18.75 15.492 18.75 14.25C18.75 13.008 19.758 12 21 12ZM3 12C4.242 12 5.25 13.008 5.25 14.25C5.25 15.492 4.242 16.5 3 16.5C1.758 16.5 0.75 15.492 0.75 14.25C0.75 13.008 1.758 12 3 12ZM12.25 16.5H11.75V16.001C11.232 15.992 10.697 15.868 10.25 15.637L10.477 14.815C10.955 15.001 11.591 15.198 12.09 15.085C12.664 14.955 12.782 14.364 12.147 14.08C11.681 13.863 10.258 13.677 10.258 12.459C10.258 11.777 10.777 11.167 11.75 11.034V10.5H12.25V11.009C12.612 11.019 13.018 11.082 13.471 11.219L13.29 12.043C12.906 11.908 12.482 11.786 12.069 11.811C11.324 11.854 11.259 12.499 11.778 12.769C12.634 13.171 13.75 13.469 13.75 14.541C13.751 15.4 13.078 15.857 12.25 15.973V16.5ZM21 13.125C21.621 13.125 22.125 13.629 22.125 14.25C22.125 14.871 21.621 15.375 21 15.375C20.379 15.375 19.875 14.871 19.875 14.25C19.875 13.629 20.379 13.125 21 13.125ZM3 13.125C3.621 13.125 4.125 13.629 4.125 14.25C4.125 14.871 3.621 15.375 3 15.375C2.379 15.375 1.875 14.871 1.875 14.25C1.875 13.629 2.379 13.125 3 13.125ZM1.182 10H0.166C0.895 5.666 3.949 2.118 8 0.684V1.751C4.504 3.118 1.877 6.222 1.182 10ZM23.834 10H22.818C22.123 6.222 19.496 3.118 16 1.751V0.684C20.051 2.118 23.105 5.666 23.834 10ZM10 7H9C9 5.896 9.896 5 11 5H13C13.963 5 15 5.76 15 7H14C14 6.381 13.481 6 13 6H11C10.448 6 10 6.449 10 7ZM12 0C13.242 0 14.25 1.008 14.25 2.25C14.25 3.492 13.242 4.5 12 4.5C10.758 4.5 9.75 3.492 9.75 2.25C9.75 1.008 10.758 0 12 0ZM12 1.125C12.621 1.125 13.125 1.629 13.125 2.25C13.125 2.871 12.621 3.375 12 3.375C11.379 3.375 10.875 2.871 10.875 2.25C10.875 1.629 11.379 1.125 12 1.125Z" fill="#937F50"/>
</svg>
