<svg width="24" height="24" viewBox="0 0 24 24" fill="none" xmlns="http://www.w3.org/2000/svg">
<path d="M21.5473 7.00008H18.2568C18.1225 7.00008 17.9907 7.0365 17.8755 7.10545C17.7602 7.1744 17.6658 7.2733 17.6023 7.39164C17.6023 7.39164 16.2899 9.80857 15.8684 10.6226C14.7343 12.8126 13.9999 12.1251 13.9999 11.1087V7.60425C13.9999 7.31141 13.8836 7.03056 13.6765 6.82349C13.4695 6.61642 13.1886 6.50008 12.8958 6.50008H10.4218C10.0849 6.47503 9.74712 6.53653 9.44066 6.67874C9.1342 6.82094 8.86918 7.03913 8.67077 7.31258C8.67077 7.31258 9.92703 7.10946 9.92703 8.80216C9.92703 9.2219 9.94865 10.4294 9.96835 11.4422C9.97206 11.5914 9.9299 11.7382 9.84754 11.8627C9.76518 11.9872 9.6466 12.0835 9.5078 12.1385C9.36901 12.1934 9.21668 12.2045 9.07139 12.1702C8.92611 12.1359 8.79485 12.0578 8.69535 11.9465C7.6827 10.5381 6.8439 9.01248 6.19715 7.40288C6.14161 7.28248 6.05269 7.18053 5.94095 7.10913C5.82921 7.03774 5.69934 6.99989 5.56674 7.00008C4.85314 7.00008 3.42516 7.00008 2.57713 7.00008C2.4949 6.99953 2.41376 7.01894 2.34068 7.05666C2.2676 7.09437 2.20478 7.14927 2.1576 7.21662C2.11042 7.28398 2.08029 7.36178 2.06981 7.44335C2.05934 7.52491 2.06882 7.6078 2.09744 7.68489C3.00523 10.175 6.9157 18.0001 11.3791 18.0001H13.2578C13.4546 18.0001 13.6434 17.9219 13.7826 17.7827C13.9217 17.6435 13.9999 17.4547 13.9999 17.2579V16.1235C13.9999 15.9812 14.0416 15.842 14.1197 15.7231C14.1979 15.6041 14.3091 15.5107 14.4397 15.4542C14.5703 15.3977 14.7146 15.3806 14.8548 15.4051C14.995 15.4296 15.1249 15.4946 15.2286 15.592L17.4772 17.7047C17.6792 17.8944 17.9458 18.0001 18.2229 18.0001H21.1758C22.5999 18.0001 22.5999 17.0118 21.8234 16.2471C21.277 15.709 19.3051 13.6305 19.3051 13.6305C19.1362 13.4556 19.0355 13.226 19.0212 12.9833C19.0068 12.7406 19.0797 12.5007 19.2267 12.3071C19.8641 11.4683 20.9066 10.0953 21.3487 9.50715C21.9531 8.70321 23.0468 7.00008 21.5473 7.00008Z" fill="#D6E4E8"/>
</svg>
