<svg width="22" height="16" viewBox="0 0 22 16" fill="none" xmlns="http://www.w3.org/2000/svg">
<path d="M2.20565 1.4973L9.73115 7.4583C10.0724 7.7283 10.5426 7.8483 10.9994 7.8258C11.4561 7.84755 11.9264 7.7283 12.2676 7.4583L19.7931 1.4973C20.3946 1.0218 20.2581 0.633301 19.4931 0.633301H11.0001H2.5064C1.74065 0.633301 1.6049 1.0218 2.20565 1.4973Z" fill="white"/>
<path d="M20.3361 3.06995L12.1123 9.31295C11.8048 9.5447 11.4021 9.6572 11.0001 9.6527C10.5981 9.6572 10.1953 9.54395 9.88783 9.31295L1.66408 3.06995C1.05358 2.6072 0.554077 2.85545 0.554077 3.6212V13.8655C0.554077 14.6312 1.18108 15.2575 1.94683 15.2575H11.0001H20.0533C20.8191 15.2575 21.4461 14.6305 21.4461 13.8655V3.6212C21.4468 2.85545 20.9473 2.6072 20.3361 3.06995Z" fill="white"/>
</svg>
