<svg width="14" height="32" viewBox="0 0 14 32" fill="none" xmlns="http://www.w3.org/2000/svg">
<path d="M6.75081 6.95652C8.61463 6.95652 10.1262 5.39916 10.1262 3.47801C10.1262 1.55717 8.61463 0 6.75081 0C4.88705 0 3.37555 1.55717 3.37555 3.47807C3.37561 5.39916 4.88711 6.95652 6.75081 6.95652Z" fill="#937F50"/>
<path d="M8.23785 7.93308C7.85301 7.78305 7.43591 7.7002 7.00013 7.7002C6.56382 7.7002 6.14635 7.78313 5.76128 7.93339C4.67759 8.27212 0.594046 10.0783 0.00378266 18.1621C-0.0507751 18.9069 0.491261 19.5562 1.21408 19.6121C1.24753 19.6148 1.28084 19.6161 1.31392 19.6161C1.99408 19.6161 2.56935 19.0753 2.62127 18.3648C2.75586 16.5222 3.08569 15.1069 3.50007 14.0215V18.1854C3.50007 18.4694 3.5327 18.7456 3.59291 19.0106V30.4219C3.59291 31.2936 4.27873 31.9999 5.12422 31.9999C5.97009 31.9999 6.65553 31.2935 6.65553 30.4219V21.775C6.76894 21.7864 6.88363 21.7923 6.99998 21.7923C7.11618 21.7923 7.23117 21.7864 7.34466 21.775V30.422C7.34466 31.2936 8.03017 32 8.87574 32C9.72154 32 10.4071 31.2936 10.4071 30.422V19.0097C10.4671 18.7448 10.5 18.4692 10.5 18.1856V14.0211C10.9143 15.1066 11.244 16.5219 11.3785 18.3649C11.4304 19.0754 12.006 19.6163 12.6861 19.6163C12.7191 19.6163 12.7524 19.6149 12.7859 19.6123C13.5088 19.5564 14.0505 18.9072 13.9963 18.1622C13.4064 10.075 9.31959 8.27072 8.23785 7.93308Z" fill="#937F50"/>
</svg>
