<svg width="12" height="24" viewBox="0 0 12 24" fill="none" xmlns="http://www.w3.org/2000/svg">
<path d="M6.00018 5.96373C7.65671 5.96373 9.00027 4.62856 9.00027 2.98177C9.00027 1.33499 7.65671 0 6.00018 0C4.3432 0 3 1.33499 3 2.98177C3 4.62856 4.3432 5.96373 6.00018 5.96373Z" fill="#937F50"/>
<path d="M11.9968 15.4195C11.4913 8.7403 7.99443 7.24504 7.06377 6.96399C6.73284 6.83922 6.37483 6.77026 6.00023 6.77026C5.62595 6.77026 5.26815 6.83912 4.93774 6.96368C4.00845 7.24358 0.509159 8.73717 0.00326296 15.4195C-0.0436531 16.0352 0.420889 16.572 1.04035 16.6184C1.06911 16.6205 1.09755 16.6217 1.126 16.6217C1.70914 16.6217 2.20234 16.1748 2.24684 15.5874C2.36208 14.0636 2.64473 12.8935 3.00023 11.996V14.4874C3.00023 14.7215 3.02804 14.9491 3.07957 15.1678V22.6956C3.07957 23.4161 3.66702 24 4.39186 24C5.1168 24 5.70456 23.4161 5.70456 22.6956V17.4546C5.80176 17.4644 5.90042 17.4693 6.00002 17.4693C6.09963 17.4693 6.19818 17.4644 6.29527 17.4547V22.6956C6.29527 23.4161 6.88303 24 7.60787 24C8.33239 24 8.92015 23.4161 8.92015 22.6956V15.1689C8.97179 14.95 8.99971 14.7221 8.99971 14.4874V12.0073C9.35489 12.9036 9.63807 14.0704 9.75289 15.5874C9.79729 16.1747 10.2906 16.6217 10.8737 16.6217C10.9018 16.6217 10.9304 16.6205 10.9591 16.6184C11.5787 16.572 12.0434 16.0352 11.9968 15.4195Z" fill="#937F50"/>
</svg>
