<svg width="14" height="12" viewBox="0 0 14 12" fill="none" xmlns="http://www.w3.org/2000/svg">
<path d="M12.7926 4.67242L12.8208 4.67309L12.849 4.67056C12.8583 4.66973 12.8638 4.66956 12.8668 4.66956C12.9342 4.66956 12.9608 4.71835 12.9608 4.74456C12.9608 4.76231 12.952 4.78609 12.923 4.80429L12.9116 4.81147L12.9006 4.81927L9.63309 7.1293L9.33333 7.34123L9.44576 7.6907L10.6116 11.3146L10.6255 11.3578L10.6469 11.3978C10.6521 11.4074 10.6541 11.4163 10.6541 11.4247C10.6541 11.4515 10.6271 11.5 10.5603 11.5C10.5348 11.5 10.5134 11.4918 10.4965 11.4788L10.4788 11.4652L10.4599 11.4532L6.9985 9.25558L6.73051 9.08543L6.46252 9.25557L3.00095 11.4532L2.98175 11.4654L2.96375 11.4793C2.94782 11.4915 2.92621 11.5 2.90049 11.5C2.83326 11.5 2.80645 11.4514 2.80645 11.4247C2.80645 11.4156 2.80862 11.4071 2.81313 11.3987L2.83488 11.3583L2.84892 11.3147L4.01486 7.69071L4.1273 7.34123L3.82752 7.1293L0.559937 4.81926L0.548527 4.8112L0.536685 4.80378C0.522841 4.79511 0.513235 4.78439 0.507491 4.77441C0.502184 4.76519 0.499512 4.75568 0.499512 4.74456C0.499512 4.71771 0.526513 4.6695 0.592816 4.66956H0.593258C0.598885 4.66956 0.603444 4.66983 0.606638 4.67015L0.636993 4.67314L0.667485 4.67242L4.76977 4.57567L5.10494 4.56777L5.22489 4.25469L6.62667 0.595948L6.63376 0.577419L6.63937 0.558385C6.64694 0.532708 6.67789 0.5 6.73021 0.5C6.7825 0.5 6.81328 0.532885 6.82061 0.557854L6.82627 0.577143L6.83346 0.595915L8.23494 4.25466L8.35488 4.56776L8.69007 4.57567L12.7926 4.67242Z" fill="#D09200" stroke="#D09200"/>
</svg>
