<svg width="20" height="20" viewBox="0 0 20 20" fill="none" xmlns="http://www.w3.org/2000/svg">
<path d="M0.833252 15V16.6667H14.1666V18.3333H0.833252V20H15.8333V15H0.833252Z" fill="#D09200" stroke="white" stroke-width="0.5"/>
<path d="M19.1667 15H17.5V20H19.1667V15Z" fill="#D09200" stroke="white" stroke-width="0.5"/>
<path d="M15.8333 4.75C15.6666 2.08333 13.4999 0 10.8333 0C9.41658 0 8.08325 0.583333 7.16658 1.58333C6.99992 1.58333 6.83325 1.58333 6.66658 1.58333C3.41658 1.58333 0.833252 4.16667 0.833252 7.41667C0.833252 10.6667 3.41658 13.3333 6.66658 13.3333C8.49992 13.3333 9.74992 12.6667 10.6666 12.1667C11.5833 11.6667 12.1666 11.3333 13.0833 11.6667C13.6666 11.8333 14.0833 12.4167 14.1666 13.1667C14.1666 13.25 14.1666 13.3333 14.1666 13.3333H15.8333C15.8333 13.3333 15.8333 13.0833 15.8333 13C15.6666 11.5833 14.8333 10.5 13.5833 10.0833C11.9166 9.5 10.8333 10.1667 9.83325 10.75C8.99992 11.1667 8.08325 11.6667 6.66658 11.6667C4.41658 11.6667 2.49992 9.75 2.49992 7.41667C2.49992 5.33333 4.08325 3.58333 6.16658 3.33333C5.91658 3.83333 5.83325 4.16667 5.83325 5H7.49992C7.49992 4.16667 7.74992 3.58333 8.16658 3C8.83325 2.16667 9.74992 1.66667 10.8333 1.66667C12.4166 1.66667 13.7499 2.75 14.0833 4.25C13.8333 4.16667 13.5833 4.16667 13.3333 4.16667V5.83333C13.8333 5.83333 14.2499 5.91667 14.7499 6.08333C16.4166 6.66667 17.4999 8.25 17.4999 10V13.3333H19.1666V10C19.1666 7.75 17.8333 5.66667 15.8333 4.75Z" fill="#D09200" stroke="white" stroke-width="0.5"/>
</svg>
