<svg width="17" height="18" viewBox="0 0 17 18" fill="none" xmlns="http://www.w3.org/2000/svg">
<path d="M15.754 15.5017C15.8829 15.3633 15.9624 15.1782 15.9624 14.9747C15.9624 14.5473 15.6147 14.1996 15.1874 14.1996H14.988V8.29096V8.02127V2.11309H15.4059C15.7128 2.11309 15.9624 1.8634 15.9624 1.55654C15.9624 1.24965 15.7128 1 15.4059 1H1.94427C1.63742 1 1.38772 1.24969 1.38772 1.55654C1.38772 1.8634 1.63742 2.11309 1.94427 2.11309H2.36218V8.02127V8.29096V14.1996H2.1628C1.7354 14.1996 1.38772 14.5472 1.38772 14.9746C1.38772 15.1782 1.46728 15.3633 1.59614 15.5017C1.2549 15.5828 1 15.8894 1 16.2551C1 16.6825 1.34772 17.0302 1.77507 17.0302H15.5751C16.0025 17.0302 16.3502 16.6825 16.3502 16.2551C16.3502 15.8894 16.0953 15.5828 15.754 15.5017ZM1.94427 1.84339C1.78608 1.84339 1.65742 1.71469 1.65742 1.55654C1.65742 1.39836 1.78608 1.26969 1.94427 1.26969H15.4059C15.5641 1.26969 15.6928 1.39836 15.6928 1.55654C15.6928 1.71473 15.5641 1.84339 15.4059 1.84339H1.94427ZM8.80971 8.02127V2.11309H14.7183V8.02127H8.80971ZM14.7183 8.29096V14.1996H8.80971V8.29096H14.7183ZM2.63188 8.02127V2.11309H8.54002V8.02127H2.63188ZM8.54002 8.29096V14.1996H2.63188V8.29096H8.54002ZM2.1628 14.4693H2.36218H8.54006H8.80975H14.988H15.1874C15.466 14.4693 15.6928 14.696 15.6928 14.9746C15.6928 15.2533 15.466 15.48 15.1874 15.48H2.1628C1.88415 15.48 1.65742 15.2533 1.65742 14.9746C1.65742 14.696 1.88411 14.4693 2.1628 14.4693ZM15.5751 16.7605H1.77507C1.49643 16.7605 1.26969 16.5338 1.26969 16.2551C1.26969 15.9765 1.49643 15.7497 1.77507 15.7497H2.1628H15.1874H15.5751C15.8538 15.7497 16.0805 15.9765 16.0805 16.2551C16.0805 16.5338 15.8538 16.7605 15.5751 16.7605Z" fill="#D09200" stroke="#D09200" stroke-width="0.5"/>
</svg>
