<svg width="16" height="16" viewBox="0 0 16 16" fill="none" xmlns="http://www.w3.org/2000/svg">
<g clip-path="url(#clip0)">
<path d="M14 16.0001H9.33333V11.6667H6.66667V16.0001H2V9.00008C2 8.81608 2.149 8.66675 2.33333 8.66675C2.51767 8.66675 2.66667 8.81608 2.66667 9.00008V15.3334H6V11.0001H10V15.3334H13.3333V9.33341C13.3333 9.14941 13.4823 9.00008 13.6667 9.00008C13.851 9.00008 14 9.14941 14 9.33341V16.0001Z" fill="#D09200" stroke="#D09200" stroke-width="0.5"/>
<path d="M15.6665 9.00007C15.5835 9.00007 15.5008 8.9694 15.4362 8.90774L7.99984 1.79474L0.563507 8.90774C0.430507 9.03474 0.219507 9.0304 0.092174 8.8974C-0.0351594 8.7644 -0.0301594 8.5534 0.102507 8.42607L7.99984 0.87207L15.8968 8.42574C16.0295 8.55307 16.0345 8.76407 15.9072 8.89707C15.8418 8.9654 15.7545 9.00007 15.6665 9.00007Z" fill="#D09200" stroke="#D09200" stroke-width="0.5"/>
<path d="M13 5C12.8157 5 12.6667 4.85067 12.6667 4.66667V2.66667H10.6667C10.4824 2.66667 10.3334 2.51733 10.3334 2.33333C10.3334 2.14933 10.4824 2 10.6667 2H13.3334V4.66667C13.3334 4.85067 13.1844 5 13 5Z" fill="#D09200" stroke="#D09200" stroke-width="0.5"/>
</g>
<defs>
<clipPath id="clip0">
<rect width="16" height="16" fill="white"/>
</clipPath>
</defs>
</svg>
