<svg width="20" height="20" viewBox="0 0 20 20" fill="none" xmlns="http://www.w3.org/2000/svg">
<path d="M4.3195 8.05469C4.37028 8.05859 4.42106 8.07031 4.46793 8.09375C4.53825 8.13281 4.62418 8.12109 4.68278 8.0625L6.60075 6.14453C6.68668 6.05859 6.68668 5.91797 6.60075 5.83203C6.49528 5.72656 6.49528 5.55469 6.60075 5.44922L7.12418 4.92578C7.22965 4.82031 7.40153 4.82031 7.507 4.92578L7.66325 5.08203L8.91325 3.83203C9.21403 3.53125 9.21403 3.04688 8.91325 2.75L7.24918 1.08594C6.9484 0.785156 6.46403 0.785156 6.16715 1.08594L4.91715 2.33594L5.04606 2.46484C5.18278 2.60156 5.18278 2.82813 5.04606 2.96484L4.64371 3.36719C4.507 3.50391 4.28043 3.50391 4.14371 3.36719C4.0734 3.29688 3.96012 3.29688 3.88981 3.36719L1.9445 5.3125C1.87418 5.38281 1.87418 5.5 1.9445 5.57031C2.01481 5.64063 2.02653 5.75391 1.96793 5.83984C-0.543786 9.55078 1.23746 11.3672 1.23746 11.3672C1.46012 9.74219 2.83121 8.23438 4.17496 8.05469C4.21793 8.05078 4.27262 8.05078 4.3195 8.05469Z" stroke="#D09200" stroke-miterlimit="10" stroke-linecap="round" stroke-linejoin="round"/>
<path d="M17.3459 16.1211L7.27173 6.80859L5.4436 8.63672L14.7522 18.7109C15.2639 19.2578 16.1272 19.2734 16.6584 18.7422L17.3772 18.0234C17.9084 17.4961 17.8928 16.6328 17.3459 16.1211Z" stroke="#D09200" stroke-miterlimit="10" stroke-linecap="round" stroke-linejoin="round"/>
<path d="M3.92944 16.6992C3.37085 17.2578 3.37085 18.1602 3.92944 18.7188C4.48804 19.2773 5.39038 19.2773 5.94897 18.7188L9.95679 14.7109L8.01538 12.6133L3.92944 16.6992Z" stroke="#D09200" stroke-miterlimit="10" stroke-linecap="round" stroke-linejoin="round"/>
<path d="M19.2717 5.914L17.0881 8.09759C16.9202 8.26556 16.6663 8.32024 16.4436 8.23821L15.221 7.78118C15.0569 7.71868 14.9241 7.58978 14.8655 7.42572L14.4085 6.20306C14.3264 5.98041 14.3811 5.7265 14.5491 5.55853L16.7327 3.37494C15.5842 3.09369 14.3225 3.40228 13.4319 4.30463C12.4514 5.29681 12.1936 6.74212 12.6545 7.97259L11.2444 9.38274L13.342 11.3241L14.6702 9.99602C15.9085 10.4648 17.3616 10.1991 18.3577 9.20306C19.2483 8.30853 19.553 7.05462 19.2717 5.914Z" stroke="#D09200" stroke-miterlimit="10" stroke-linecap="round" stroke-linejoin="round"/>
</svg>
