<svg width="19" height="19" viewBox="0 0 19 19" fill="none" xmlns="http://www.w3.org/2000/svg">
<path d="M3.42759 6.80581L2.36694 7.86646L4.7534 10.2529L5.81405 9.19227L3.42759 6.80581Z" stroke="#D09200" stroke-miterlimit="10" stroke-linecap="round" stroke-linejoin="round"/>
<path d="M5.54652 6.29235L4.2207 7.61816L5.28135 8.67881L6.60717 7.353L5.54652 6.29235Z" stroke="#D09200" stroke-miterlimit="10" stroke-linecap="round" stroke-linejoin="round"/>
<path d="M7.37623 2.8203L4.72461 5.47192L7.37623 8.12355L10.0279 5.47192L7.37623 2.8203Z" stroke="#D09200" stroke-miterlimit="10" stroke-linecap="round" stroke-linejoin="round"/>
<path d="M7.38794 2.83745L8.43794 1.78745C9.45044 0.774951 11.1379 0.774951 12.1504 1.78745C11.1379 1.78745 10.1629 2.19995 9.45044 2.91245L8.43794 3.92495" stroke="#D09200" stroke-miterlimit="10" stroke-linecap="round" stroke-linejoin="round"/>
<path d="M9.52579 6.00253L7.93481 7.59351L16.42 16.0787L18.011 14.4877L9.52579 6.00253Z" stroke="#D09200" stroke-miterlimit="10" stroke-linecap="round" stroke-linejoin="round"/>
<path d="M0.75 11.875H2.25" stroke="#D09200" stroke-miterlimit="10" stroke-linecap="round" stroke-linejoin="round"/>
<path d="M1.5 11.875V18.25" stroke="#D09200" stroke-miterlimit="10" stroke-linecap="round" stroke-linejoin="round"/>
</svg>
