<svg width="23" height="18" viewBox="0 0 23 18" fill="none" xmlns="http://www.w3.org/2000/svg">
<path d="M18.8916 7.69775H4.12493C2.48071 7.69775 1 8.90622 1 10.5504V14.8375C1 15.0348 1.30771 15.282 1.505 15.282H21.5116C21.709 15.282 21.7829 15.0348 21.7829 14.8375V10.5504C21.7829 8.90622 20.5359 7.69775 18.8916 7.69775Z" stroke="#D09200" stroke-miterlimit="10" stroke-linecap="round" stroke-linejoin="round"/>
<path d="M21.7829 11.6009C21.7829 11.4036 21.623 11.2437 21.4257 11.2437H1.35725C1.15996 11.2437 1 11.4036 1 11.6009V14.9248C1 15.1221 1.15996 15.282 1.35725 15.282H21.4257C21.623 15.282 21.7829 15.1221 21.7829 14.9248V11.6009V11.6009Z" stroke="#D09200" stroke-miterlimit="10" stroke-linecap="round" stroke-linejoin="round"/>
<path d="M20.0096 6.61436V1.26171C20.0096 1.06442 19.9223 1 19.7249 1H3.29099C3.0937 1 2.87109 1.06442 2.87109 1.26171V6.61436" stroke="#D09200" stroke-miterlimit="10" stroke-linecap="round" stroke-linejoin="round"/>
<path d="M1 13.4106V16.9565" stroke="#D09200" stroke-miterlimit="10" stroke-linecap="round" stroke-linejoin="round"/>
<path d="M21.783 13.4106V16.9565" stroke="#D09200" stroke-miterlimit="10" stroke-linecap="round" stroke-linejoin="round"/>
<path d="M16.3228 6.60519C16.3228 5.72 16.5126 4.78782 16.5126 4.78782C16.5126 4.63072 16.3852 4.4878 16.228 4.4878C16.228 4.4878 15.3429 4.66962 14.4735 4.66962C13.6042 4.66962 12.6244 4.47607 12.6244 4.47607C12.4671 4.47607 12.3396 4.60146 12.3396 4.75866C12.3396 4.75866 12.5294 5.65775 12.5294 6.60618" stroke="#D09200" stroke-miterlimit="10" stroke-linecap="round" stroke-linejoin="round"/>
<path d="M10.4883 6.60519C10.4883 5.72 10.678 4.78782 10.678 4.78782C10.678 4.63072 10.5505 4.4878 10.3934 4.4878C10.3934 4.4878 9.50821 4.66962 8.63897 4.66962C7.76954 4.66962 6.78969 4.47607 6.78969 4.47607C6.63239 4.47607 6.50513 4.60146 6.50513 4.75866C6.50513 4.75866 6.69473 5.65775 6.69473 6.60618" stroke="#D09200" stroke-miterlimit="10" stroke-linecap="round" stroke-linejoin="round"/>
</svg>
