<svg width="11" height="21" viewBox="0 0 11 21" fill="none" xmlns="http://www.w3.org/2000/svg">
<path d="M1 19.4802C1 19.6128 1.10744 19.7202 1.24 19.7202H10.36C10.4926 19.7202 10.6 19.6128 10.6 19.4802V1.24024C10.6 1.10768 10.4926 1.00024 10.36 1.00024H1.24C1.10744 1.00024 1 1.10768 1 1.24024V19.4802Z" stroke="#D09200" stroke-width="0.75" stroke-miterlimit="10" stroke-linecap="round" stroke-linejoin="round"/>
<path d="M2.35999 9.16011V2.36011H9.23999V18.3601H2.35999V14.7601" stroke="#D09200" stroke-width="0.75" stroke-miterlimit="10" stroke-linecap="round" stroke-linejoin="round"/>
<path d="M3 12.28V13.48C3 13.48 2.96984 13.64 2.45992 13.64C1.95 13.64 1.88 13.48 1.88 13.48V10.44C1.88 10.44 2.04544 10.28 2.49008 10.28C2.93472 10.28 3 10.44 3 10.44V10.84" stroke="#D09200" stroke-width="0.75" stroke-miterlimit="10" stroke-linecap="round" stroke-linejoin="round"/>
<path d="M4.03993 11.5601H2.67993" stroke="#D09200" stroke-width="0.75" stroke-miterlimit="10" stroke-linecap="round" stroke-linejoin="round"/>
</svg>
