<svg width="16" height="16" viewBox="0 0 16 16" fill="none" xmlns="http://www.w3.org/2000/svg">
<path d="M5.80008 8.66667C4.73341 7.93333 4.00008 6.73333 4.00008 5.33333C5.93341 5.33333 7.73341 4.6 9.00008 3.33333C9.80008 4.26667 10.8001 5 12.0001 5.46667C11.9334 6.8 11.2667 7.93333 10.2001 8.66667H12.1334C12.8667 7.73333 13.3334 6.6 13.3334 5.33333C13.3334 2.4 10.9334 0 8.00008 0C5.06675 0 2.66675 2.4 2.66675 5.33333C2.66675 6.6 3.13341 7.73333 3.86675 8.66667H5.80008ZM8.00008 1.33333C10.0001 1.33333 11.6667 2.8 11.9334 4.73333C11.0001 4.33333 10.1334 3.66667 9.46675 2.86667C9.33341 2.66667 9.26675 2.53333 9.06675 2.33333C8.86675 2.53333 8.80008 2.66667 8.60008 2.8C7.40008 3.93333 5.80008 4.66667 4.06675 4.66667C4.40008 2.8 6.00008 1.33333 8.00008 1.33333Z" fill="#D09200"/>
<path d="M12 9.33325H4C1.8 9.33325 0 11.1333 0 13.3333V15.3333C0 15.7333 0.266667 15.9999 0.666667 15.9999H15.3333C15.7333 15.9999 16 15.7333 16 15.3333V13.3333C16 11.1333 14.2 9.33325 12 9.33325ZM14.6667 14.6666H1.33333V13.3333C1.33333 11.8666 2.53333 10.6666 4 10.6666H12C13.4667 10.6666 14.6667 11.8666 14.6667 13.3333V14.6666Z" fill="#D09200"/>
</svg>
