<svg width="21" height="23" viewBox="0 0 21 23" fill="none" xmlns="http://www.w3.org/2000/svg">
<path fill-rule="evenodd" clip-rule="evenodd" d="M20 20.6875C20 21.413 19.4335 22 18.7333 22H2.26667C1.56652 22 1 21.413 1 20.6875V6.25C1 5.52452 1.56652 4.9375 2.26667 4.9375H6.06667V2.3125C6.06667 1.58702 6.63318 1 7.33333 1H16.2C16.9001 1 17.4667 1.58702 17.4667 2.3125V10.1875H18.7333C19.4335 10.1875 20 10.7745 20 11.5V20.6875ZM6.06667 6.25H2.26667V20.6875H6.06667V6.25ZM16.2 2.3125H7.33333V20.6875H11.1333V16.75H12.4V20.6875H16.2V2.3125ZM18.7333 11.5H17.4667V20.6875H18.7333V11.5Z" fill="#D09200" stroke="white" stroke-width="0.25"/>
</svg>
