<svg width="18" height="18" viewBox="0 0 18 18" fill="none" xmlns="http://www.w3.org/2000/svg">
<path d="M13.2209 7.3124C14.4609 7.3124 15.4662 6.30714 15.4662 5.06709C15.4662 3.82704 14.4609 2.82178 13.2209 2.82178C11.9808 2.82178 10.9756 3.82704 10.9756 5.06709C10.9756 6.30714 11.9808 7.3124 13.2209 7.3124Z" fill="#D09200"/>
<path d="M17.1859 11.114C16.3984 11.114 15.9812 11.3109 15.6156 11.489C15.2875 11.6484 15.0015 11.7843 14.3968 11.7843C13.7921 11.7843 13.5062 11.6484 13.1781 11.489C12.8125 11.3156 12.3953 11.114 11.6078 11.114C10.8203 11.114 10.4031 11.3109 10.0375 11.489C9.70933 11.6484 9.42339 11.7843 8.8187 11.7843C8.21401 11.7843 7.92808 11.6484 7.59995 11.489C7.23433 11.3156 6.82183 11.114 6.02964 11.114C5.24214 11.114 4.82495 11.3109 4.45933 11.489C4.1312 11.6484 3.84526 11.7843 3.24058 11.7843C2.63589 11.7843 2.34995 11.6484 2.02183 11.489C1.6562 11.3156 1.2437 11.114 0.451514 11.114C0.226514 11.114 0.0437012 11.2968 0.0437012 11.5218C0.0437012 11.7468 0.226514 11.9296 0.451514 11.9296C1.0562 11.9296 1.34214 12.0656 1.67026 12.225C2.03589 12.3984 2.44839 12.6 3.24058 12.6C4.03276 12.6 4.44526 12.4031 4.81089 12.225C5.13901 12.0656 5.42495 11.9296 6.02964 11.9296C6.63433 11.9296 6.92026 12.0656 7.24839 12.225C7.61401 12.3984 8.02651 12.6 8.8187 12.6C9.61089 12.6 10.0234 12.4031 10.389 12.225C10.7171 12.0656 11.0031 11.9296 11.6078 11.9296C12.2125 11.9296 12.4984 12.0656 12.8265 12.225C13.1921 12.3984 13.6093 12.6 14.3968 12.6C15.1843 12.6 15.6015 12.4031 15.9671 12.225C16.2953 12.0656 16.5812 11.9296 17.1859 11.9296C17.4109 11.9296 17.5937 11.7468 17.5937 11.5218C17.589 11.2968 17.4109 11.114 17.1859 11.114Z" fill="#D09200"/>
<path d="M4.81089 14.7562C5.13901 14.5968 5.42495 14.4609 6.02964 14.4609C6.63433 14.4609 6.92026 14.5968 7.24839 14.7562C7.61401 14.9296 8.02651 15.1312 8.8187 15.1312C9.61089 15.1312 10.0234 14.9343 10.389 14.7562C10.7171 14.5968 11.0031 14.4609 11.6078 14.4609C12.2125 14.4609 12.4984 14.5968 12.8265 14.7562C13.1921 14.9296 13.6093 15.1312 14.3968 15.1312C14.6218 15.1312 14.8046 14.9484 14.8046 14.7234C14.8046 14.4984 14.6218 14.3156 14.3968 14.3156C13.7921 14.3156 13.5062 14.1796 13.1781 14.0203C12.8125 13.8468 12.3953 13.6453 11.6078 13.6453C10.8203 13.6453 10.4031 13.8421 10.0375 14.0203C9.70933 14.1796 9.42339 14.3156 8.8187 14.3156C8.21401 14.3156 7.92808 14.1796 7.59995 14.0203C7.23433 13.8468 6.82183 13.6453 6.02964 13.6453C5.24214 13.6453 4.82495 13.8421 4.45933 14.0203C4.1312 14.1796 3.84526 14.3156 3.24058 14.3156C3.01558 14.3156 2.83276 14.4984 2.83276 14.7234C2.83276 14.9484 3.01558 15.1312 3.24058 15.1312C4.02808 15.1312 4.44526 14.9343 4.81089 14.7562Z" fill="#D09200"/>
<path d="M17.1859 16.1859C16.3984 16.1859 15.9812 16.3828 15.6156 16.5609C15.2875 16.7203 15.0015 16.8562 14.3968 16.8562C13.7921 16.8562 13.5062 16.7203 13.1781 16.5609C12.8125 16.3875 12.3953 16.1859 11.6078 16.1859C10.8203 16.1859 10.4031 16.3828 10.0375 16.5609C9.70933 16.7203 9.42339 16.8562 8.8187 16.8562C8.21401 16.8562 7.92808 16.7203 7.59995 16.5609C7.23433 16.3875 6.82183 16.1859 6.02964 16.1859C5.24214 16.1859 4.82495 16.3828 4.45933 16.5609C4.1312 16.7203 3.84526 16.8562 3.24058 16.8562C2.63589 16.8562 2.34995 16.7203 2.02183 16.5609C1.6562 16.3875 1.2437 16.1859 0.451514 16.1859C0.226514 16.1859 0.0437012 16.3687 0.0437012 16.5937C0.0437012 16.8187 0.226514 17.0015 0.451514 17.0015C1.0562 17.0015 1.34214 17.1375 1.67026 17.2969C2.03589 17.4703 2.44839 17.6719 3.24058 17.6719C4.03276 17.6719 4.44526 17.475 4.81089 17.2969C5.13901 17.1375 5.42495 17.0015 6.02964 17.0015C6.63433 17.0015 6.92026 17.1375 7.24839 17.2969C7.61401 17.4703 8.02651 17.6719 8.8187 17.6719C9.61089 17.6719 10.0234 17.475 10.389 17.2969C10.7171 17.1375 11.0031 17.0015 11.6078 17.0015C12.2125 17.0015 12.4984 17.1375 12.8265 17.2969C13.1921 17.4703 13.6093 17.6719 14.3968 17.6719C15.1843 17.6719 15.6015 17.475 15.9671 17.2969C16.2953 17.1375 16.5812 17.0015 17.1859 17.0015C17.4109 17.0015 17.5937 16.8187 17.5937 16.5937C17.5937 16.3687 17.4109 16.1859 17.1859 16.1859Z" fill="#D09200"/>
<path d="M13.2218 1.99214C13.4468 1.99214 13.6296 1.80933 13.6296 1.58433V0.740576C13.6296 0.515576 13.4468 0.332764 13.2218 0.332764C12.9968 0.332764 12.814 0.515576 12.814 0.740576V1.58433C12.8187 1.80933 13.0015 1.99214 13.2218 1.99214Z" fill="#D09200"/>
<path d="M15.6853 3.00937C15.7884 3.00937 15.8915 2.97187 15.9712 2.89218L16.5665 2.29687C16.7259 2.1375 16.7259 1.87969 16.5665 1.725C16.4071 1.56563 16.1493 1.56563 15.9946 1.725L15.3993 2.32031C15.2399 2.47968 15.2399 2.7375 15.3993 2.89218C15.479 2.97187 15.5821 3.00937 15.6853 3.00937Z" fill="#D09200"/>
<path d="M17.5509 4.65918H16.7071C16.4821 4.65918 16.2993 4.84199 16.2993 5.06699C16.2993 5.29199 16.4821 5.4748 16.7071 5.4748H17.5509C17.7759 5.4748 17.9587 5.29199 17.9587 5.06699C17.954 4.84199 17.7759 4.65918 17.5509 4.65918Z" fill="#D09200"/>
<path d="M15.3993 7.24209C15.2399 7.40146 15.2399 7.65928 15.3993 7.81396L15.9946 8.40927C16.0743 8.48896 16.1774 8.52646 16.2806 8.52646C16.3837 8.52646 16.4868 8.48896 16.5665 8.40927C16.7259 8.2499 16.7259 7.99209 16.5665 7.8374L15.9712 7.24209C15.8118 7.08271 15.554 7.08271 15.3993 7.24209Z" fill="#D09200"/>
<path d="M12.8171 8.5499V9.39364C12.8171 9.61864 13 9.80145 13.225 9.80145C13.45 9.80145 13.6328 9.61864 13.6328 9.39364V8.5499C13.6328 8.3249 13.45 8.14209 13.225 8.14209C13 8.14209 12.8171 8.3249 12.8171 8.5499Z" fill="#D09200"/>
<path d="M10.4734 7.24209L9.87808 7.8374C9.7187 7.99677 9.7187 8.25459 9.87808 8.40927C9.95776 8.48896 10.0609 8.52646 10.164 8.52646C10.2671 8.52646 10.3703 8.48896 10.4499 8.40927L11.0453 7.81396C11.2046 7.65459 11.2046 7.39678 11.0453 7.24209C10.8859 7.08271 10.6328 7.08271 10.4734 7.24209Z" fill="#D09200"/>
<path d="M8.89219 5.47041H9.73594C9.96094 5.47041 10.1437 5.2876 10.1437 5.0626C10.1437 4.8376 9.96094 4.65479 9.73594 4.65479H8.89219C8.66719 4.65479 8.48438 4.8376 8.48438 5.0626C8.48906 5.29228 8.66719 5.47041 8.89219 5.47041Z" fill="#D09200"/>
<path d="M10.4734 2.89218C10.5531 2.97187 10.6562 3.00937 10.7593 3.00937C10.8624 3.00937 10.9656 2.97187 11.0453 2.89218C11.2046 2.73281 11.2046 2.475 11.0453 2.32031L10.4499 1.725C10.2906 1.56563 10.0328 1.56563 9.87808 1.725C9.7187 1.88437 9.7187 2.14219 9.87808 2.29687L10.4734 2.89218Z" fill="#D09200"/>
</svg>
