<svg width="43" height="43" viewBox="0 0 43 43" fill="none" xmlns="http://www.w3.org/2000/svg">
<path d="M21.8731 10.1378C15.9472 10.1378 11.0371 14.9632 11.0371 20.9738C11.0371 26.9844 15.8625 31.8098 21.8731 31.8098C27.8837 31.8098 32.7091 26.8997 32.7091 20.9738C32.7091 15.0479 27.799 10.1378 21.8731 10.1378ZM21.8731 27.9156C18.0636 27.9156 14.9313 24.7833 14.9313 20.9738C14.9313 17.1643 18.0636 14.032 21.8731 14.032C25.6826 14.032 28.8149 17.1643 28.8149 20.9738C28.8149 24.7833 25.6826 27.9156 21.8731 27.9156Z" fill="#333C3E"/>
<path d="M33.1325 12.3385C34.4884 12.3385 35.5875 11.2393 35.5875 9.88343C35.5875 8.52756 34.4884 7.42841 33.1325 7.42841C31.7766 7.42841 30.6775 8.52756 30.6775 9.88343C30.6775 11.2393 31.7766 12.3385 33.1325 12.3385Z" fill="#333C3E"/>
<path d="M39.4818 3.5345C37.2808 1.24878 34.1485 0.0635986 30.5929 0.0635986H13.1538C5.78872 0.0635986 0.878662 4.97365 0.878662 12.3387V29.6932C0.878662 33.3334 2.06385 36.4657 4.43422 38.7514C6.71993 40.9525 9.76755 42.053 13.2385 42.053H30.5083C34.1485 42.053 37.1961 40.8678 39.3972 38.7514C41.6829 36.5504 42.8681 33.4181 42.8681 29.7779V12.3387C42.8681 8.78318 41.6829 5.73556 39.4818 3.5345ZM39.1432 29.7779C39.1432 32.4022 38.212 34.5186 36.6882 35.9578C35.1644 37.3969 33.048 38.1588 30.5083 38.1588H13.2385C10.6988 38.1588 8.58237 37.3969 7.05856 35.9578C5.53475 34.434 4.77284 32.3176 4.77284 29.6932V12.3387C4.77284 9.79905 5.53475 7.68265 7.05856 6.15884C8.49771 4.71968 10.6988 3.95778 13.2385 3.95778H30.6776C33.2173 3.95778 35.3337 4.71968 36.8575 6.24349C38.2967 7.7673 39.1432 9.8837 39.1432 12.3387V29.7779Z" fill="#333C3E"/>
</svg>
