<svg width="210" height="43" viewBox="0 0 210 43" fill="none" xmlns="http://www.w3.org/2000/svg">
<g opacity="0.9">
<path d="M32.9681 30.8371H10.5747V30.4686C10.5747 30.1 10.6991 29.8543 11.1967 29.8543H32.346C32.7193 29.8543 32.9681 30.2229 32.9681 30.4686V30.8371ZM30.6043 28.1343C30.9775 28.1343 31.2264 28.5029 31.2264 28.7486V29.1171H12.3164V28.7486C12.3164 28.38 12.4408 28.1343 12.9384 28.1343H30.6043ZM25.006 24.8171V21.8686C25.2548 22.2371 26.0012 22.8514 26.9965 22.9743V25.4314H25.7524C25.3792 25.4314 25.006 25.3086 25.006 24.8171ZM19.4076 18.4286C20.1541 18.6743 21.3981 18.7971 21.3981 18.7971V24.8171C21.3981 25.1857 21.0249 25.4314 20.7761 25.4314H19.532V18.4286H19.4076ZM24.1351 18.4286V25.4314H22.891C22.5178 25.4314 22.269 25.3086 22.269 24.8171V18.7971C22.269 18.7971 23.3887 18.7971 24.1351 18.4286ZM17.2927 17.3229C17.2927 18.1829 16.5462 18.92 15.6754 18.92C14.8045 18.92 14.0581 18.1829 14.0581 17.3229C14.0581 16.4629 14.6801 15.7257 15.551 15.7257H27.9918C28.8626 15.7257 29.6091 16.4629 29.6091 17.3229C29.6091 18.1829 28.8626 18.92 27.9918 18.92C27.1209 18.92 26.3745 18.1829 26.3745 17.3229C26.3745 17.2 26.3745 16.9543 26.4989 16.8314C25.2548 17.3229 23.5131 17.8143 21.8958 17.8143C20.4029 17.8143 18.6612 17.3229 17.4171 16.8314C17.2927 17.0771 17.2927 17.2 17.2927 17.3229ZM16.5462 25.4314V22.9743C17.4171 22.8514 18.2879 22.2371 18.5368 21.8686V24.8171C18.5368 25.1857 18.1635 25.4314 17.9147 25.4314H16.5462ZM28.987 26.2914C29.3602 26.2914 29.6091 26.66 29.6091 26.9057V27.2743H14.0581V26.9057C14.0581 26.5371 14.1825 26.2914 14.6801 26.2914H28.987ZM15.551 12.5314H27.8673C30.7287 12.5314 32.8437 14.7429 32.8437 17.4457C32.8437 20.1486 30.6043 22.36 27.8673 22.36C26.4989 22.36 25.2548 21.7457 24.8816 20.7629C24.3839 19.6571 24.7572 18.4286 25.2548 18.1829C25.5036 19.5343 26.4989 20.5171 27.9918 20.5171C29.6091 20.5171 30.9775 19.1657 30.9775 17.5686C30.9775 15.9714 29.6091 14.62 27.9918 14.62H15.6754C14.0581 14.62 12.6896 15.9714 12.6896 17.5686C12.6896 19.1657 14.0581 20.5171 15.6754 20.5171C17.1683 20.5171 18.1635 19.5343 18.4124 18.1829C18.7856 18.5514 19.2832 19.6571 18.7856 20.7629C18.2879 21.7457 17.0439 22.36 15.7998 22.36C13.0628 22.36 10.8235 20.1486 10.8235 17.4457C10.6991 14.62 12.814 12.5314 15.551 12.5314ZM21.7714 0C9.70381 0 0 9.58286 0 21.5C0 33.4171 9.70381 43 21.7714 43C33.8389 43 43.5427 33.4171 43.5427 21.5C43.5427 9.58286 33.8389 0 21.7714 0Z" fill="white"/>
<path d="M153.145 31.2057C150.906 31.5743 148.667 31.82 146.552 31.82C143.193 31.82 140.953 31.0828 139.709 29.7314C138.465 28.38 137.843 26.2914 137.843 23.7114V18.92C137.843 16.5857 138.216 14.8657 139.087 13.76C139.958 12.6543 140.953 11.7943 142.198 11.5486C143.442 11.18 144.935 11.0571 146.676 11.0571C148.667 11.0571 150.906 11.3028 153.145 11.6714V14.4971C150.284 14.2514 148.169 14.1286 146.552 14.1286C145.432 14.1286 144.561 14.2514 143.939 14.4971C143.317 14.7428 142.82 15.1114 142.446 15.8486C142.073 16.5857 141.949 17.5686 141.949 19.0428V23.8343C141.949 25.3086 142.198 26.4143 142.571 27.1514C142.944 27.8886 143.442 28.38 144.188 28.5028C144.81 28.7486 145.805 28.7486 146.925 28.7486C147.671 28.7486 148.542 28.7486 149.538 28.6257V23.22H147.049V20.3943H153.394V31.2057H153.145Z" fill="white"/>
<path d="M164.218 19.2886C162.103 19.2886 160.486 19.6572 159.366 20.3943V31.5743H155.758V16.2172H158.495L159.117 17.5686C160.61 16.3401 162.228 15.8486 164.218 15.8486V19.2886Z" fill="white"/>
<path d="M175.166 25.4315V22.2372C175.166 20.8858 174.918 19.9029 174.42 19.4115C173.922 18.9201 173.176 18.6743 172.056 18.6743C170.812 18.6743 169.941 18.9201 169.568 19.5343C169.07 20.1486 168.946 21.0086 168.946 22.2372V25.4315C168.946 26.6601 169.195 27.5201 169.568 28.1343C169.941 28.7486 170.812 28.9943 172.056 28.9943C173.3 28.9943 174.171 28.7486 174.544 28.1343C174.918 27.5201 175.166 26.6601 175.166 25.4315ZM178.774 25.5543C178.774 27.7658 178.152 29.3629 177.033 30.3458C175.913 31.3286 174.171 31.8201 171.932 31.8201C169.568 31.8201 167.826 31.3286 166.707 30.3458C165.587 29.3629 165.089 27.7658 165.089 25.5543V22.1143C165.089 19.9029 165.711 18.3058 166.831 17.3229C167.951 16.3401 169.692 15.8486 171.932 15.8486C174.296 15.8486 176.037 16.3401 177.157 17.3229C178.277 18.3058 178.774 19.9029 178.774 22.1143V25.5543Z" fill="white"/>
<path d="M194.076 31.4516H191.214L190.592 30.1001C188.726 31.2059 186.985 31.8201 185.367 31.8201C183.874 31.8201 182.755 31.4516 181.884 30.7144C181.137 29.9773 180.764 28.503 180.764 26.1687V16.2173H184.372V26.1687C184.372 27.1516 184.496 27.8887 184.745 28.3801C184.994 28.7487 185.616 28.9944 186.363 28.9944C187.482 28.9944 188.726 28.6259 190.095 27.8887V16.3401H193.827V31.4516H194.076Z" fill="white"/>
<path d="M206.268 25.1858V22.3601C206.268 20.7629 206.144 19.6572 205.77 19.2886C205.397 18.9201 204.775 18.6743 203.78 18.6743C202.66 18.6743 201.541 18.9201 200.421 19.5343V28.9943C201.292 29.1172 202.163 29.1172 203.033 29.1172C204.402 29.1172 205.273 28.7486 205.646 28.1343C206.144 27.5201 206.268 26.5372 206.268 25.1858ZM210 25.4315C210 27.1515 209.751 28.5029 209.254 29.3629C208.756 30.3458 208.01 30.9601 207.015 31.3286C206.019 31.6972 204.9 31.8201 203.407 31.8201C202.287 31.8201 201.292 31.6972 200.545 31.5743V36.6115L196.938 37.1029V16.2172H199.674L200.297 17.2001C201.789 16.3401 203.407 15.8486 205.024 15.8486C206.89 15.8486 208.134 16.3401 208.881 17.3229C209.627 18.3058 210 19.7801 210 21.9915V25.4315Z" fill="white"/>
<path d="M71.9077 22.1142C71.9077 20.6399 72.1566 19.657 72.6542 19.2884C73.1518 18.797 73.8983 18.6742 74.8935 18.6742C75.7644 18.6742 76.3864 18.797 76.884 19.1656C77.2573 19.4113 77.5061 19.7799 77.6305 20.2713C77.7549 20.7627 77.7549 21.377 77.7549 22.237V22.7284H71.9077V22.1142ZM80.8651 30.7142V28.257C79.1234 28.5027 77.3817 28.7484 75.7644 28.7484C74.6447 28.7484 73.7739 28.6256 73.2762 28.3799C72.7786 28.1342 72.4054 27.7656 72.281 27.397C72.1565 26.9056 72.0321 26.2913 72.0321 25.3084V24.6942H81.4871V22.6056C81.4871 20.0256 80.9895 18.1827 79.9942 17.1999C78.999 16.217 77.2573 15.7256 75.0179 15.7256C72.6542 15.7256 70.9125 16.3399 69.9172 17.4456C68.9219 18.5513 68.4243 20.2713 68.4243 22.6056V25.1856C68.4243 27.7656 68.9219 29.4856 70.0416 30.3456C71.1613 31.3284 72.903 31.697 75.3912 31.697C76.884 31.697 78.7502 31.2056 80.8651 30.7142Z" fill="white"/>
<path d="M83.3535 31.329H86.9613V10.0747L83.3535 10.5661V31.329Z" fill="white"/>
<path d="M62.7022 25.9225C62.7022 27.0283 62.4534 27.7654 61.8313 28.0111C61.3337 28.3797 60.0896 28.5025 58.3479 28.5025H55.2377V22.114H58.7211C60.0896 22.114 61.0849 22.3597 61.7069 22.7283C62.329 23.0968 62.5778 23.834 62.5778 24.9397V25.9225H62.7022ZM55.3621 14.0054H58.5967C60.0896 14.0054 61.2093 14.1283 61.7069 14.374C62.329 14.6197 62.5778 15.234 62.5778 16.2168V16.954C62.5778 18.0597 62.329 18.674 61.7069 19.1654C61.0849 19.534 60.214 19.7797 58.8455 19.7797H55.3621V14.0054ZM63.8218 20.8854C65.5636 20.2711 66.31 19.0425 66.31 16.954V16.3397C66.31 14.6197 65.8124 13.2683 64.8171 12.4083C63.8218 11.5483 61.7069 11.1797 58.7211 11.1797H51.6299V31.3283H58.4723C60.4628 31.3283 62.0801 31.2054 63.1998 30.9597C64.3195 30.714 65.1903 30.2225 65.8124 29.3625C66.4344 28.6254 66.6832 27.3968 66.6832 25.7997V24.9397C66.6832 23.7111 66.4344 22.7283 65.9368 22.114C65.3147 21.6225 64.6927 21.1311 63.8218 20.8854Z" fill="white"/>
<path d="M98.7801 22.6056H92.9329V22.1142C92.9329 20.6399 93.1817 19.657 93.6794 19.2884C94.177 18.797 94.9234 18.6742 95.9187 18.6742C96.7896 18.6742 97.4116 18.797 97.9092 19.1656C98.2825 19.4113 98.5313 19.7799 98.6557 20.2713C98.7801 20.7627 98.7801 21.377 98.7801 22.237V22.6056ZM95.7943 15.7256C93.4306 15.7256 91.6888 16.3399 90.6936 17.4456C89.6983 18.5513 89.2007 20.2713 89.2007 22.6056V25.1856C89.2007 27.7656 89.6983 29.4856 90.818 30.3456C91.9377 31.3284 93.6794 31.697 96.1675 31.697C97.7848 31.697 99.5265 31.2056 101.641 30.7142V28.257C99.8998 28.5027 98.158 28.7484 96.5407 28.7484C95.4211 28.7484 94.5502 28.6256 94.0526 28.3799C93.555 28.1342 93.1817 27.7656 93.0573 27.397C92.9329 26.9056 92.8085 26.2913 92.8085 25.3084V24.6942H102.264V22.6056C102.264 20.0256 101.766 18.1827 100.771 17.1999C99.7754 16.217 98.158 15.7256 95.7943 15.7256Z" fill="white"/>
<path d="M113.958 25.4315C113.958 26.6601 113.709 27.5201 113.336 28.1343C112.963 28.7486 112.092 28.9943 110.848 28.9943C109.604 28.9943 108.733 28.7486 108.36 28.1343C107.987 27.5201 107.738 26.6601 107.738 25.4315V22.2372C107.738 21.0086 107.987 20.1486 108.36 19.5343C108.733 18.9201 109.604 18.6743 110.848 18.6743C111.843 18.6743 112.714 18.9201 113.212 19.4115C113.709 19.9029 113.958 20.8858 113.958 22.2372V25.4315ZM117.69 25.5543V22.1143C117.69 19.9029 117.193 18.4286 116.073 17.3229C114.953 16.3401 113.336 15.8486 110.972 15.8486C108.733 15.8486 106.991 16.3401 105.872 17.3229C104.752 18.3058 104.13 19.9029 104.13 22.1143V25.5543C104.13 27.7658 104.628 29.2401 105.747 30.3458C106.867 31.3286 108.609 31.8201 110.972 31.8201C113.212 31.8201 114.953 31.3286 116.073 30.3458C117.068 29.3629 117.69 27.7658 117.69 25.5543Z" fill="white"/>
<path d="M128.14 15.7256C126.398 15.7256 124.781 16.3399 123.039 17.4456L122.541 16.0942H119.556V31.3284H123.163V19.7799C124.532 19.0427 125.9 18.6742 126.896 18.6742C127.642 18.6742 128.264 18.797 128.513 19.1656C128.762 19.4113 129.011 20.1484 129.011 21.1313V31.3284H132.618V21.0084C132.618 19.1656 132.245 17.8142 131.499 16.9542C130.877 16.0942 129.757 15.7256 128.14 15.7256Z" fill="white"/>
</g>
</svg>
