<svg width="14" height="12" viewBox="0 0 14 12" fill="none" xmlns="http://www.w3.org/2000/svg">
<path d="M5.02142 3.86851C5.02142 3.86851 2.65142 4.13101 1.07042 4.30651C0.927917 4.32376 0.801918 4.41901 0.754668 4.56376C0.707418 4.70851 0.754667 4.85926 0.859667 4.95451C2.03417 6.02626 3.79892 7.63126 3.79892 7.63126C3.79742 7.63126 3.31442 9.96601 2.99342 11.5238C2.96642 11.6648 3.01742 11.814 3.14042 11.9033C3.26267 11.9925 3.42017 11.994 3.54392 11.9243C4.92692 11.1383 6.99842 9.95626 6.99842 9.95626C6.99842 9.95626 9.07067 11.1383 10.4514 11.925C10.5774 11.994 10.7349 11.9925 10.8572 11.9033C10.9802 11.814 11.0312 11.6648 11.0034 11.5245C10.6824 9.96601 10.2002 7.63126 10.2002 7.63126C10.2002 7.63126 11.9649 6.02626 13.1394 4.95676C13.2444 4.85851 13.2909 4.70776 13.2444 4.56376C13.1979 4.41976 13.0719 4.32451 12.9294 4.30801C11.3484 4.13101 8.97767 3.86851 8.97767 3.86851C8.97767 3.86851 7.99517 1.69501 7.34042 0.246013C7.27892 0.116263 7.14992 0.0255127 6.99842 0.0255127C6.84692 0.0255127 6.71717 0.117013 6.65867 0.246013C6.00317 1.69501 5.02142 3.86851 5.02142 3.86851Z" fill="#C4C4C4"/>
</svg>
