<svg width="10" height="12" viewBox="0 0 10 12" fill="none" xmlns="http://www.w3.org/2000/svg">
<path d="M5.49805 0.500004C5.49805 0.223866 5.27419 0 4.99805 0C4.72191 0 4.49805 0.223865 4.49805 0.500004L4.49805 11.5C4.49805 11.7762 4.72191 12 4.99805 12C5.27419 12 5.49805 11.7762 5.49805 11.5L5.49805 0.500004Z" fill="#333C3E"/>
<path d="M1.76216 7.55391C1.56692 7.35867 1.25036 7.35867 1.05512 7.55391C0.859881 7.74915 0.859881 8.06571 1.05512 8.26095L4.64781 11.8536L4.64778 11.8537C4.84304 12.0489 5.15963 12.0489 5.35489 11.8537L5.35777 11.8507L8.94753 8.26094C9.14277 8.0657 9.14277 7.74914 8.94753 7.5539C8.75229 7.35866 8.43573 7.35866 8.24049 7.5539L5.00133 10.7931L1.76217 7.5539L1.76216 7.55391Z" fill="#333C3E"/>
</svg>
