<svg width="10" height="12" viewBox="0 0 10 12" fill="none" xmlns="http://www.w3.org/2000/svg">
<path d="M4.50195 11.5C4.50195 11.7761 4.72581 12 5.00195 12C5.27809 12 5.50195 11.7761 5.50195 11.5L5.50195 0.499969C5.50195 0.22383 5.27809 -3.43518e-05 5.00195 -3.4376e-05C4.72581 -3.44001e-05 4.50195 0.22383 4.50195 0.499969L4.50195 11.5Z" fill="#333C3E"/>
<path d="M8.23784 4.44609C8.43308 4.64133 8.74964 4.64133 8.94488 4.44609C9.14012 4.25085 9.14012 3.93429 8.94488 3.73905L5.35219 0.146383L5.35222 0.146347C5.15696 -0.0489138 4.84037 -0.0489139 4.64511 0.146347L4.64223 0.149299L1.05247 3.73906C0.85723 3.9343 0.85723 4.25086 1.05247 4.4461C1.24771 4.64134 1.56427 4.64134 1.75951 4.4461L4.99867 1.20694L8.23783 4.4461L8.23784 4.44609Z" fill="#333C3E"/>
</svg>
