<svg width="24" height="24" viewBox="0 0 24 24" fill="none" xmlns="http://www.w3.org/2000/svg">
<path d="M15.8995 2H5.8335C5.15762 2 4.60724 2.55076 4.60724 3.22651V20.7733C4.60724 21.45 5.15762 22 5.8335 22H18.1635C18.84 22 19.3898 21.45 19.3898 20.7733V5.79246L15.8995 2ZM16.189 3.83533L17.7188 5.49798H16.189V3.83533ZM18.3599 20.7733C18.3599 20.8814 18.2715 20.9701 18.1629 20.9701H5.8335C5.72512 20.9701 5.63719 20.8814 5.63719 20.7733V3.22651C5.63719 3.11822 5.72512 3.03046 5.8335 3.03046H15.1585V6.01317C15.1585 6.29715 15.3898 6.52738 15.674 6.52738H18.3599V20.7733ZM7.45403 7.47785H16.2C16.413 7.47785 16.5858 7.65066 16.5858 7.86371C16.5858 8.07676 16.413 8.24957 16.2 8.24957H7.45403C7.24102 8.24957 7.06817 8.07676 7.06817 7.86371C7.06817 7.6507 7.24102 7.47785 7.45403 7.47785ZM16.5858 10.4567C16.5858 10.6697 16.413 10.8426 16.2 10.8426H7.45403C7.24102 10.8426 7.06817 10.6697 7.06817 10.4567C7.06817 10.2436 7.24102 10.0708 7.45403 10.0708H16.2C16.413 10.0708 16.5858 10.2437 16.5858 10.4567ZM16.5858 12.9648C16.5858 13.1778 16.413 13.3506 16.2 13.3506H7.45403C7.24102 13.3506 7.06817 13.1778 7.06817 12.9648C7.06817 12.7517 7.24102 12.5789 7.45403 12.5789H16.2C16.413 12.5789 16.5858 12.7517 16.5858 12.9648ZM16.5858 15.5155C16.5858 15.7286 16.413 15.9014 16.2 15.9014H7.45403C7.24102 15.9014 7.06817 15.7286 7.06817 15.5155C7.06817 15.3025 7.24102 15.1297 7.45403 15.1297H16.2C16.413 15.1297 16.5858 15.3025 16.5858 15.5155Z" fill="#937F50"/>
</svg>
