<svg width="24" height="24" viewBox="0 0 24 24" fill="none" xmlns="http://www.w3.org/2000/svg">
<path d="M11.9625 20.5875C7.2375 20.5875 3.375 16.725 3.375 12C3.375 7.27497 7.2375 3.41248 11.9625 3.41248C16.6875 3.41248 20.55 7.27497 20.55 12C20.5875 16.725 16.725 20.5875 11.9625 20.5875ZM11.9625 4.31247C7.725 4.31247 4.3125 7.76247 4.3125 11.9625C4.3125 16.1625 7.7625 19.6125 11.9625 19.6125C16.1625 19.6125 19.6125 16.1625 19.6125 11.9625C19.6125 7.76247 16.2 4.31247 11.9625 4.31247Z" fill="#937F50" stroke="#937F50" stroke-width="0.25"/>
<path d="M14.6615 16.3875L11.474 13.2V7.38745H12.4865V12.7874L15.374 15.6749L14.6615 16.3875Z" fill="#937F50" stroke="#937F50" stroke-width="0.25"/>
</svg>
