<svg width="24" height="24" viewBox="0 0 24 24" fill="none" xmlns="http://www.w3.org/2000/svg">
<g clip-path="url(#clip0)">
<path d="M21.6301 4.13353L14.3033 0.166027C13.6083 -0.210451 12.6526 0.0791474 12.2761 0.774185L7.99004 8.73815H2.77726C2.11118 8.73815 1.5899 9.25943 1.5899 9.92551V12.0106V22.8127C1.5899 23.4787 2.11118 24 2.77726 24H19.4292C20.0953 24 20.6165 23.4787 20.6165 22.8127V19.8008H21.1089C21.3695 19.8008 21.5722 19.5981 21.5722 19.3375V15.8912C21.5722 15.6306 21.3695 15.4279 21.1089 15.4279H20.6165V12.0396C20.6165 11.4893 20.2111 10.997 19.6898 10.8812L22.2383 6.16072C22.6148 5.43673 22.3541 4.53897 21.6301 4.13353ZM16.4174 2.36698L11.8417 10.8522H10.5385L15.4327 1.8457L16.4174 2.36698ZM13.1159 1.20858C13.2607 0.947944 13.6083 0.832104 13.8689 0.976904L14.5929 1.38234L9.49595 10.8522H7.90316L13.1159 1.20858ZM2.48766 9.89655C2.48766 9.80967 2.6035 9.66487 2.7483 9.66487H7.46876L6.83164 10.8233H2.7483C2.66142 10.8233 2.57454 10.8233 2.48766 10.8522V9.89655ZM19.6609 22.8127C19.6609 22.9575 19.545 23.0733 19.4002 23.0733H2.7483C2.6035 23.0733 2.48766 22.9575 2.48766 22.8127V12.0396C2.48766 11.8948 2.6035 11.7789 2.7483 11.7789H7.12124H8.97468H12.363H18.879H19.3713C19.5161 11.7789 19.6319 11.8948 19.6319 12.0396V15.4279H17.8654C17.0834 15.4279 16.4753 16.065 16.4753 16.818V18.4108C16.4753 19.1927 17.1124 19.8008 17.8654 19.8008H19.6609V22.8127ZM20.5876 16.3546H20.6165V18.8741H20.5876H17.8654C17.6047 18.8741 17.402 18.6714 17.402 18.4108V16.818C17.402 16.5573 17.6047 16.3546 17.8654 16.3546H20.5876ZM21.3985 5.69736L18.6183 10.8522H12.8843L17.2282 2.83034L21.1668 4.97337C21.4564 5.08921 21.5433 5.43673 21.3985 5.69736Z" fill="#937F50"/>
<path d="M19.6313 5.26294L19.3996 5.1471C18.8204 4.82854 18.0385 5.06022 17.7199 5.63942L17.4303 6.18965C17.2855 6.47925 17.2276 6.82677 17.3434 7.14533C17.4303 7.46389 17.662 7.72453 17.9516 7.86933L18.1833 7.98517C18.357 8.07205 18.5597 8.12997 18.7625 8.12997C19.2258 8.12997 19.6313 7.86933 19.8629 7.49285L20.1525 6.94261C20.4421 6.33445 20.2105 5.5815 19.6313 5.26294ZM19.3127 6.50821L19.0231 7.05845C18.9362 7.20325 18.7335 7.26117 18.5887 7.17429L18.357 7.02949C18.2991 7.00053 18.2412 6.91365 18.2122 6.85573C18.1833 6.76885 18.1833 6.68197 18.2412 6.62405L18.5308 6.07381C18.5887 5.98693 18.7045 5.90006 18.8204 5.90006C18.8783 5.90006 18.9073 5.90006 18.9652 5.92902L19.1969 6.04485C19.3127 6.16069 19.3706 6.33445 19.3127 6.50821Z" fill="#937F50"/>
</g>
<defs>
<clipPath id="clip0">
<rect width="24" height="24" fill="white"/>
</clipPath>
</defs>
</svg>
