<svg width="16" height="14" viewBox="0 0 16 14" fill="none" xmlns="http://www.w3.org/2000/svg">
<path d="M14.4 3.23077C13.5161 3.23077 12.8 3.95433 12.8 4.84615C12.8 5.07231 12.8469 5.28675 12.9297 5.48248L10.6667 6.46154L8.77347 3.02144C9.264 2.74494 9.6 2.22223 9.6 1.61538C9.6 0.723558 8.88387 0 8 0C7.11613 0 6.4 0.723558 6.4 1.61538C6.4 2.22223 6.736 2.74494 7.22653 3.02144L5.33333 6.46154L3.07027 5.48248C3.15307 5.28675 3.2 5.07231 3.2 4.84615C3.2 3.95433 2.48387 3.23077 1.6 3.23077C0.716133 3.23077 0 3.95433 0 4.84615C0 5.73798 0.716133 6.46154 1.6 6.46154C1.724 6.46154 1.84293 6.44363 1.95933 6.41739L3.2 11.8462V12.9231C3.2 13.5183 3.6776 14 4.26667 14H11.7333C12.3224 14 12.8 13.5183 12.8 12.9231V11.8462L14.0412 6.41739C14.1568 6.44471 14.276 6.46154 14.4 6.46154C15.2839 6.46154 16 5.73798 16 4.84615C16 3.95433 15.2839 3.23077 14.4 3.23077ZM8 1.07692C8.29427 1.07692 8.53333 1.31883 8.53333 1.61538C8.53333 1.91194 8.29427 2.15385 8 2.15385C7.70573 2.15385 7.46667 1.91194 7.46667 1.61538C7.46667 1.31883 7.70573 1.07692 8 1.07692ZM1.06667 4.84615C1.06667 4.5496 1.30573 4.30769 1.6 4.30769C1.89427 4.30769 2.13333 4.5496 2.13333 4.84615C2.13333 5.14271 1.89427 5.38462 1.6 5.38462C1.30573 5.38462 1.06667 5.14271 1.06667 4.84615ZM11.7333 12.9231H4.26667V11.8462H11.7333V12.9231ZM11.9511 10.7692H4.04893L3.112 6.67194L4.91307 7.45123C5.04947 7.51006 5.19213 7.53846 5.3328 7.53846C5.70987 7.53846 6.0724 7.33654 6.2656 6.98425L8 3.83344L9.7344 6.98425C9.9276 7.33654 10.2901 7.53846 10.6672 7.53846C10.8079 7.53846 10.9505 7.51006 11.0869 7.45123L12.888 6.67194L11.9511 10.7692ZM14.4 5.38462C14.1057 5.38462 13.8667 5.14271 13.8667 4.84615C13.8667 4.5496 14.1057 4.30769 14.4 4.30769C14.6943 4.30769 14.9333 4.5496 14.9333 4.84615C14.9333 5.14271 14.6943 5.38462 14.4 5.38462Z" fill="#937F50"/>
</svg>
