<svg width="20" height="18" viewBox="0 0 20 18" fill="none" xmlns="http://www.w3.org/2000/svg">
<path d="M18.1797 0.421875H1.82031C0.825203 0.421875 0.015625 1.23145 0.015625 2.22656V15.7734C0.015625 16.7685 0.825203 17.5781 1.82031 17.5781H18.1797C19.1748 17.5781 19.9844 16.7685 19.9844 15.7734V2.22656C19.9844 1.23145 19.1748 0.421875 18.1797 0.421875ZM18.7656 2.22656V3.23409H14.3642V1.64062H18.1797C18.5028 1.64062 18.7656 1.90345 18.7656 2.22656ZM1.82031 1.64062H13.1454V3.23409H1.23438V2.22656C1.23438 1.90345 1.4972 1.64062 1.82031 1.64062ZM18.1797 16.3594H1.82031C1.4972 16.3594 1.23438 16.0965 1.23438 15.7734V4.45284H18.7656V15.7734C18.7656 16.0965 18.5028 16.3594 18.1797 16.3594Z" fill="#937F50"/>
<path d="M7.45412 9.07277C7.23189 8.97499 6.96798 9.08595 6.88248 9.31859L6.49393 10.2044L6.32415 9.80505C6.17949 9.44871 5.65834 9.44496 5.50829 9.8043L5.34174 10.2016L4.95343 9.31638C4.85926 9.07648 4.59727 8.97809 4.38769 9.07268C4.15707 9.17281 4.05507 9.42734 4.15257 9.64924C4.97279 11.5898 4.95723 11.6014 5.05899 11.6653C5.1608 11.7774 5.3717 11.8003 5.47651 11.7557C5.71698 11.6967 5.82123 11.3301 5.9184 11.0934C6.03095 11.3601 6.17209 11.9057 6.61332 11.7593C6.69376 11.748 6.83785 11.6501 6.89856 11.508L7.68892 9.64943C7.78647 9.42776 7.68353 9.17473 7.45412 9.07277Z" fill="#937F50"/>
<path d="M11.5337 9.07277C11.311 8.97481 11.0474 9.08632 10.9621 9.31859L10.5735 10.2044L10.4037 9.80501C10.2627 9.4579 9.75316 9.43681 9.5898 9.79985C9.58914 9.80135 9.58849 9.80281 9.58788 9.80431L9.42133 10.2016L9.03302 9.31639C8.93885 9.07648 8.67686 8.97809 8.46728 9.07268C8.23666 9.17281 8.13466 9.42734 8.23216 9.64924C9.06799 11.6267 9.03681 11.6014 9.13858 11.6653C9.19619 11.7287 9.30166 11.7682 9.35491 11.7705C9.76713 11.8452 9.86406 11.4198 9.99799 11.0934C10.1112 11.3619 10.2515 11.9055 10.693 11.7593C10.7671 11.7489 10.9173 11.6512 10.9782 11.508L11.7685 9.64943C11.866 9.42776 11.7631 9.17473 11.5337 9.07277Z" fill="#937F50"/>
<path d="M15.6139 9.07277C15.3913 8.97481 15.1276 9.08632 15.0423 9.31859L14.6537 10.2044L14.4839 9.80501C14.3429 9.4579 13.8334 9.43681 13.67 9.79985C13.6693 9.80135 13.6687 9.8028 13.6681 9.8043L13.5015 10.2016L13.1132 9.31638C13.019 9.07648 12.7571 8.97809 12.5475 9.07268C12.3169 9.17281 12.2149 9.42734 12.3124 9.64924C13.1326 11.5898 13.117 11.6013 13.2188 11.6653C13.3265 11.784 13.6106 11.845 13.797 11.6574C13.8905 11.5835 13.903 11.5204 14.0782 11.0934C14.192 11.363 14.3315 11.9055 14.7732 11.7592C14.8494 11.7485 14.9967 11.6526 15.0584 11.5079L15.8488 9.64938C15.9462 9.42776 15.8433 9.17473 15.6139 9.07277Z" fill="#937F50"/>
</svg>
