<svg width="18" height="18" viewBox="0 0 18 18" fill="none" xmlns="http://www.w3.org/2000/svg">
<path d="M8.9625 17.5876C4.2375 17.5876 0.375 13.7251 0.375 9.0001C0.375 4.2751 4.2375 0.412598 8.9625 0.412598C13.6875 0.412598 17.55 4.2751 17.55 9.0001C17.5875 13.7251 13.725 17.5876 8.9625 17.5876ZM8.9625 1.3126C4.725 1.3126 1.3125 4.76259 1.3125 8.96259C1.3125 13.1626 4.7625 16.6126 8.9625 16.6126C13.1625 16.6126 16.6125 13.1626 16.6125 8.96259C16.6125 4.76259 13.2 1.3126 8.9625 1.3126Z" fill="#937F50" stroke="#937F50" stroke-width="0.25"/>
<path d="M11.6615 13.3877L8.474 10.2002V4.3877H9.48649V9.78769L12.374 12.6752L11.6615 13.3877Z" fill="#937F50" stroke="#937F50" stroke-width="0.25"/>
</svg>
