<svg width="18" height="13" viewBox="0 0 18 13" fill="none" xmlns="http://www.w3.org/2000/svg">
<path d="M16.65 0H1.35C0.991958 0 0.64858 0.146747 0.395406 0.407958C0.142232 0.66917 0 1.02345 0 1.39286V11.6071C0 11.9766 0.142232 12.3308 0.395406 12.592C0.64858 12.8533 0.991958 13 1.35 13H16.65C17.008 13 17.3514 12.8533 17.6046 12.592C17.8578 12.3308 18 11.9766 18 11.6071V1.39286C18 1.02345 17.8578 0.66917 17.6046 0.407958C17.3514 0.146747 17.008 0 16.65 0ZM1.35 0.928571H16.65C16.7693 0.928571 16.8838 0.977487 16.9682 1.06456C17.0526 1.15163 17.1 1.26972 17.1 1.39286V2.73H0.9V1.39286C0.9 1.26972 0.947411 1.15163 1.0318 1.06456C1.11619 0.977487 1.23065 0.928571 1.35 0.928571ZM16.65 12.0714H1.35C1.23065 12.0714 1.11619 12.0225 1.0318 11.9354C0.947411 11.8484 0.9 11.7303 0.9 11.6071V3.65857H17.1V11.6071C17.1 11.7303 17.0526 11.8484 16.9682 11.9354C16.8838 12.0225 16.7693 12.0714 16.65 12.0714Z" fill="#937F50"/>
<path d="M13.0516 5.57131C12.5629 5.56913 12.0876 5.73585 11.7016 6.04488C11.3142 5.73836 10.8398 5.57194 10.3516 5.57131C9.75483 5.57131 9.18253 5.81589 8.76057 6.25124C8.33862 6.68659 8.10156 7.27706 8.10156 7.89274C8.10156 8.50842 8.33862 9.09888 8.76057 9.53424C9.18253 9.96959 9.75483 10.2142 10.3516 10.2142C10.8398 10.2135 11.3142 10.0471 11.7016 9.7406C12.0876 10.0496 12.5629 10.2163 13.0516 10.2142C13.6483 10.2142 14.2206 9.96959 14.6426 9.53424C15.0645 9.09888 15.3016 8.50842 15.3016 7.89274C15.3016 7.27706 15.0645 6.68659 14.6426 6.25124C14.2206 5.81589 13.6483 5.57131 13.0516 5.57131ZM9.00156 7.89274C9.00156 7.61726 9.08074 7.34796 9.22908 7.11891C9.37742 6.88986 9.58826 6.71133 9.83494 6.60591C10.0816 6.50048 10.3531 6.4729 10.6149 6.52664C10.8768 6.58039 11.1174 6.71305 11.3062 6.90784C11.495 7.10263 11.6235 7.35082 11.6756 7.62101C11.7277 7.89119 11.701 8.17125 11.5988 8.42576C11.4966 8.68027 11.3236 8.89781 11.1016 9.05086C10.8796 9.20391 10.6186 9.2856 10.3516 9.2856C9.99352 9.2856 9.65014 9.13885 9.39697 8.87764C9.14379 8.61643 9.00156 8.26215 9.00156 7.89274ZM13.0516 9.2856C12.7809 9.28211 12.5175 9.19476 12.2956 9.03488C12.4963 8.68989 12.6023 8.2951 12.6023 7.89274C12.6023 7.49038 12.4963 7.09558 12.2956 6.7506C12.47 6.62504 12.6706 6.54376 12.8812 6.51339C13.0918 6.48302 13.3064 6.50442 13.5075 6.57583C13.7086 6.64724 13.8905 6.76666 14.0383 6.92434C14.1862 7.08202 14.2959 7.27352 14.3584 7.48322C14.4209 7.69293 14.4346 7.91491 14.3982 8.13108C14.3618 8.34726 14.2765 8.55151 14.1491 8.72719C14.0217 8.90288 13.8559 9.04503 13.6652 9.14207C13.4744 9.23911 13.2642 9.28829 13.0516 9.2856Z" fill="#937F50"/>
<path d="M5.84922 7.42847H3.14922C3.02987 7.42847 2.91541 7.47738 2.83102 7.56445C2.74663 7.65152 2.69922 7.76962 2.69922 7.89275C2.69922 8.01589 2.74663 8.13398 2.83102 8.22105C2.91541 8.30812 3.02987 8.35704 3.14922 8.35704H5.84922C5.96857 8.35704 6.08303 8.30812 6.16742 8.22105C6.25181 8.13398 6.29922 8.01589 6.29922 7.89275C6.29922 7.76962 6.25181 7.65152 6.16742 7.56445C6.08303 7.47738 5.96857 7.42847 5.84922 7.42847Z" fill="#937F50"/>
</svg>
