<svg width="14" height="20" viewBox="0 0 14 20" fill="none" xmlns="http://www.w3.org/2000/svg">
<path d="M0.789062 7.31069C0.789062 3.88146 3.56913 1.10156 6.99819 1.10156C10.4274 1.10156 13.2071 3.88144 13.2071 7.31069C13.2071 8.30118 12.8845 9.52923 12.3527 10.8416C11.8243 12.1456 11.1049 13.4955 10.3471 14.7177C9.58914 15.9403 8.80033 17.023 8.13879 17.7942C7.8069 18.1811 7.51604 18.479 7.2842 18.6756C7.16781 18.7743 7.07703 18.8382 7.01197 18.875C7.00705 18.8778 7.00246 18.8803 6.9982 18.8825C6.99394 18.8803 6.98936 18.8778 6.98445 18.875C6.91939 18.8382 6.82861 18.7743 6.71222 18.6756C6.48039 18.479 6.18953 18.1811 5.85763 17.7942C5.19608 17.023 4.40724 15.9403 3.64923 14.7177C2.89142 13.4955 2.17197 12.1456 1.64351 10.8415C1.11171 9.52922 0.789062 8.30118 0.789062 7.31069ZM2.70019 7.29156C2.70019 9.66508 4.62467 11.5896 6.99819 11.5896C9.37213 11.5896 11.2962 9.66484 11.2962 7.29156C11.2962 4.91808 9.37211 2.99356 6.99819 2.99356C4.62469 2.99356 2.70019 4.91784 2.70019 7.29156Z" stroke="#937F50"/>
</svg>
